<svg width="1440" height="560" viewBox="0 0 1440 560" fill="none" xmlns="http://www.w3.org/2000/svg">
<g clip-path="url(#clip0_61_657)">
<mask id="mask0_61_657" style="mask-type:luminance" maskUnits="userSpaceOnUse" x="0" y="0" width="1440" height="560">
<path d="M1440 0H0V560H1440V0Z" fill="white"/>
</mask>
<g mask="url(#mask0_61_657)">
<mask id="mask1_61_657" style="mask-type:luminance" maskUnits="userSpaceOnUse" x="0" y="0" width="1440" height="560">
<path d="M1440 0H0V560H1440V0Z" fill="white"/>
<path d="M159.37 312.5C159.37 313.33 159.7 314.126 160.287 314.713C160.874 315.3 161.67 315.63 162.5 315.63C163.33 315.63 164.126 315.3 164.713 314.713C165.3 314.126 165.63 313.33 165.63 312.5C165.63 311.67 165.3 310.874 164.713 310.287C164.126 309.7 163.33 309.37 162.5 309.37C161.67 309.37 160.874 309.7 160.287 310.287C159.7 310.874 159.37 311.67 159.37 312.5ZM159.37 287.5C159.37 288.33 159.7 289.126 160.287 289.713C160.874 290.3 161.67 290.63 162.5 290.63C163.33 290.63 164.126 290.3 164.713 289.713C165.3 289.126 165.63 288.33 165.63 287.5C165.63 286.67 165.3 285.874 164.713 285.287C164.126 284.7 163.33 284.37 162.5 284.37C161.67 284.37 160.874 284.7 160.287 285.287C159.7 285.874 159.37 286.67 159.37 287.5Z" fill="black"/>
<path d="M409.37 262.5C409.37 263.33 409.7 264.126 410.287 264.713C410.874 265.3 411.67 265.63 412.5 265.63C413.33 265.63 414.126 265.3 414.713 264.713C415.3 264.126 415.63 263.33 415.63 262.5C415.63 261.67 415.3 260.874 414.713 260.287C414.126 259.7 413.33 259.37 412.5 259.37C411.67 259.37 410.874 259.7 410.287 260.287C409.7 260.874 409.37 261.67 409.37 262.5ZM309.37 287.5C309.37 287.911 309.451 288.318 309.608 288.698C309.766 289.078 309.996 289.423 310.287 289.713C310.578 290.004 310.923 290.235 311.302 290.392C311.682 290.549 312.089 290.63 312.5 290.63C312.911 290.63 313.318 290.549 313.698 290.392C314.078 290.235 314.423 290.004 314.713 289.713C315.004 289.423 315.235 289.078 315.392 288.698C315.549 288.318 315.63 287.911 315.63 287.5C315.63 287.089 315.549 286.682 315.392 286.302C315.235 285.923 315.004 285.578 314.713 285.287C314.423 284.996 314.078 284.766 313.698 284.608C313.318 284.451 312.911 284.37 312.5 284.37C312.089 284.37 311.682 284.451 311.302 284.608C310.923 284.766 310.578 284.996 310.287 285.287C309.996 285.578 309.766 285.923 309.608 286.302C309.451 286.682 309.37 287.089 309.37 287.5ZM309.37 312.5C309.37 312.911 309.451 313.318 309.608 313.698C309.766 314.078 309.996 314.423 310.287 314.713C310.578 315.004 310.923 315.235 311.302 315.392C311.682 315.549 312.089 315.63 312.5 315.63C312.911 315.63 313.318 315.549 313.698 315.392C314.078 315.235 314.423 315.004 314.713 314.713C315.004 314.423 315.235 314.078 315.392 313.698C315.549 313.318 315.63 312.911 315.63 312.5C315.63 312.089 315.549 311.682 315.392 311.302C315.235 310.923 315.004 310.578 314.713 310.287C314.423 309.996 314.078 309.766 313.698 309.608C313.318 309.451 312.911 309.37 312.5 309.37C312.089 309.37 311.682 309.451 311.302 309.608C310.923 309.766 310.578 309.996 310.287 310.287C309.996 310.578 309.766 310.923 309.608 311.302C309.451 311.682 309.37 312.089 309.37 312.5ZM359.37 237.5C359.37 238.33 359.7 239.126 360.287 239.713C360.874 240.3 361.67 240.63 362.5 240.63C363.33 240.63 364.126 240.3 364.713 239.713C365.3 239.126 365.63 238.33 365.63 237.5C365.63 236.67 365.3 235.874 364.713 235.287C364.126 234.7 363.33 234.37 362.5 234.37C361.67 234.37 360.874 234.7 360.287 235.287C359.7 235.874 359.37 236.67 359.37 237.5ZM284.37 337.5C284.37 337.911 284.451 338.318 284.608 338.698C284.766 339.078 284.996 339.423 285.287 339.713C285.578 340.004 285.923 340.235 286.302 340.392C286.682 340.549 287.089 340.63 287.5 340.63C287.911 340.63 288.318 340.549 288.698 340.392C289.078 340.235 289.423 340.004 289.713 339.713C290.004 339.423 290.235 339.078 290.392 338.698C290.549 338.318 290.63 337.911 290.63 337.5C290.63 337.089 290.549 336.682 290.392 336.302C290.235 335.923 290.004 335.578 289.713 335.287C289.423 334.996 289.078 334.766 288.698 334.608C288.318 334.451 287.911 334.37 287.5 334.37C287.089 334.37 286.682 334.451 286.302 334.608C285.923 334.766 285.578 334.996 285.287 335.287C284.996 335.578 284.766 335.923 284.608 336.302C284.451 336.682 284.37 337.089 284.37 337.5Z" fill="black"/>
<path d="M509.37 362.5C509.37 363.33 509.7 364.126 510.287 364.713C510.874 365.3 511.67 365.63 512.5 365.63C513.33 365.63 514.126 365.3 514.713 364.713C515.3 364.126 515.63 363.33 515.63 362.5C515.63 361.67 515.3 360.874 514.713 360.287C514.126 359.7 513.33 359.37 512.5 359.37C511.67 359.37 510.874 359.7 510.287 360.287C509.7 360.874 509.37 361.67 509.37 362.5ZM384.37 337.5C384.37 338.33 384.7 339.126 385.287 339.713C385.874 340.3 386.67 340.63 387.5 340.63C388.33 340.63 389.126 340.3 389.713 339.713C390.3 339.126 390.63 338.33 390.63 337.5C390.63 336.67 390.3 335.874 389.713 335.287C389.126 334.7 388.33 334.37 387.5 334.37C386.67 334.37 385.874 334.7 385.287 335.287C384.7 335.874 384.37 336.67 384.37 337.5ZM559.37 387.5C559.37 388.33 559.7 389.126 560.287 389.713C560.874 390.3 561.67 390.63 562.5 390.63C563.33 390.63 564.126 390.3 564.713 389.713C565.3 389.126 565.63 388.33 565.63 387.5C565.63 386.67 565.3 385.874 564.713 385.287C564.126 384.7 563.33 384.37 562.5 384.37C561.67 384.37 560.874 384.7 560.287 385.287C559.7 385.874 559.37 386.67 559.37 387.5ZM559.37 312.5C559.37 313.33 559.7 314.126 560.287 314.713C560.874 315.3 561.67 315.63 562.5 315.63C563.33 315.63 564.126 315.3 564.713 314.713C565.3 314.126 565.63 313.33 565.63 312.5C565.63 311.67 565.3 310.874 564.713 310.287C564.126 309.7 563.33 309.37 562.5 309.37C561.67 309.37 560.874 309.7 560.287 310.287C559.7 310.874 559.37 311.67 559.37 312.5ZM559.37 412.5C559.37 413.33 559.7 414.126 560.287 414.713C560.874 415.3 561.67 415.63 562.5 415.63C563.33 415.63 564.126 415.3 564.713 414.713C565.3 414.126 565.63 413.33 565.63 412.5C565.63 411.67 565.3 410.874 564.713 410.287C564.126 409.7 563.33 409.37 562.5 409.37C561.67 409.37 560.874 409.7 560.287 410.287C559.7 410.874 559.37 411.67 559.37 412.5ZM234.37 337.5C234.37 338.33 234.7 339.126 235.287 339.713C235.874 340.3 236.67 340.63 237.5 340.63C238.33 340.63 239.126 340.3 239.713 339.713C240.3 339.126 240.63 338.33 240.63 337.5C240.63 336.67 240.3 335.874 239.713 335.287C239.126 334.7 238.33 334.37 237.5 334.37C236.67 334.37 235.874 334.7 235.287 335.287C234.7 335.874 234.37 336.67 234.37 337.5Z" fill="black"/>
<path d="M359.37 212.5C359.37 213.33 359.7 214.126 360.287 214.713C360.874 215.3 361.67 215.63 362.5 215.63C363.33 215.63 364.126 215.3 364.713 214.713C365.3 214.126 365.63 213.33 365.63 212.5C365.63 211.67 365.3 210.874 364.713 210.287C364.126 209.7 363.33 209.37 362.5 209.37C361.67 209.37 360.874 209.7 360.287 210.287C359.7 210.874 359.37 211.67 359.37 212.5ZM284.37 187.5C284.37 187.911 284.451 188.318 284.608 188.698C284.766 189.078 284.996 189.423 285.287 189.713C285.578 190.004 285.923 190.235 286.302 190.392C286.682 190.549 287.089 190.63 287.5 190.63C287.911 190.63 288.318 190.549 288.698 190.392C289.078 190.235 289.423 190.004 289.713 189.713C290.004 189.423 290.235 189.078 290.392 188.698C290.549 188.318 290.63 187.911 290.63 187.5C290.63 187.089 290.549 186.682 290.392 186.302C290.235 185.923 290.004 185.578 289.713 185.287C289.423 184.996 289.078 184.766 288.698 184.608C288.318 184.451 287.911 184.37 287.5 184.37C287.089 184.37 286.682 184.451 286.302 184.608C285.923 184.766 285.578 184.996 285.287 185.287C284.996 185.578 284.766 185.923 284.608 186.302C284.451 186.682 284.37 187.089 284.37 187.5ZM109.37 212.5C109.37 213.33 109.7 214.126 110.287 214.713C110.874 215.3 111.67 215.63 112.5 215.63C113.33 215.63 114.126 215.3 114.713 214.713C115.3 214.126 115.63 213.33 115.63 212.5C115.63 211.67 115.3 210.874 114.713 210.287C114.126 209.7 113.33 209.37 112.5 209.37C111.67 209.37 110.874 209.7 110.287 210.287C109.7 210.874 109.37 211.67 109.37 212.5ZM184.37 212.5C184.37 213.33 184.7 214.126 185.287 214.713C185.874 215.3 186.67 215.63 187.5 215.63C188.33 215.63 189.126 215.3 189.713 214.713C190.3 214.126 190.63 213.33 190.63 212.5C190.63 211.67 190.3 210.874 189.713 210.287C189.126 209.7 188.33 209.37 187.5 209.37C186.67 209.37 185.874 209.7 185.287 210.287C184.7 210.874 184.37 211.67 184.37 212.5ZM359.37 187.5C359.37 188.33 359.7 189.126 360.287 189.713C360.874 190.3 361.67 190.63 362.5 190.63C363.33 190.63 364.126 190.3 364.713 189.713C365.3 189.126 365.63 188.33 365.63 187.5C365.63 186.67 365.3 185.874 364.713 185.287C364.126 184.7 363.33 184.37 362.5 184.37C361.67 184.37 360.874 184.7 360.287 185.287C359.7 185.874 359.37 186.67 359.37 187.5Z" fill="black"/>
<path d="M559.37 462.5C559.37 463.33 559.7 464.126 560.287 464.713C560.874 465.3 561.67 465.63 562.5 465.63C563.33 465.63 564.126 465.3 564.713 464.713C565.3 464.126 565.63 463.33 565.63 462.5C565.63 461.67 565.3 460.874 564.713 460.287C564.126 459.7 563.33 459.37 562.5 459.37C561.67 459.37 560.874 459.7 560.287 460.287C559.7 460.874 559.37 461.67 559.37 462.5ZM609.37 437.5C609.37 438.33 609.7 439.126 610.287 439.713C610.874 440.3 611.67 440.63 612.5 440.63C613.33 440.63 614.126 440.3 614.713 439.713C615.3 439.126 615.63 438.33 615.63 437.5C615.63 436.67 615.3 435.874 614.713 435.287C614.126 434.7 613.33 434.37 612.5 434.37C611.67 434.37 610.874 434.7 610.287 435.287C609.7 435.874 609.37 436.67 609.37 437.5ZM509.37 437.5C509.37 438.33 509.7 439.126 510.287 439.713C510.874 440.3 511.67 440.63 512.5 440.63C513.33 440.63 514.126 440.3 514.713 439.713C515.3 439.126 515.63 438.33 515.63 437.5C515.63 436.67 515.3 435.874 514.713 435.287C514.126 434.7 513.33 434.37 512.5 434.37C511.67 434.37 510.874 434.7 510.287 435.287C509.7 435.874 509.37 436.67 509.37 437.5ZM434.37 412.5C434.37 413.33 434.7 414.126 435.287 414.713C435.874 415.3 436.67 415.63 437.5 415.63C438.33 415.63 439.126 415.3 439.713 414.713C440.3 414.126 440.63 413.33 440.63 412.5C440.63 411.67 440.3 410.874 439.713 410.287C439.126 409.7 438.33 409.37 437.5 409.37C436.67 409.37 435.874 409.7 435.287 410.287C434.7 410.874 434.37 411.67 434.37 412.5ZM409.37 387.5C409.37 388.33 409.7 389.126 410.287 389.713C410.874 390.3 411.67 390.63 412.5 390.63C413.33 390.63 414.126 390.3 414.713 389.713C415.3 389.126 415.63 388.33 415.63 387.5C415.63 386.67 415.3 385.874 414.713 385.287C414.126 384.7 413.33 384.37 412.5 384.37C411.67 384.37 410.874 384.7 410.287 385.287C409.7 385.874 409.37 386.67 409.37 387.5ZM384.37 387.5C384.37 388.33 384.7 389.126 385.287 389.713C385.874 390.3 386.67 390.63 387.5 390.63C388.33 390.63 389.126 390.3 389.713 389.713C390.3 389.126 390.63 388.33 390.63 387.5C390.63 386.67 390.3 385.874 389.713 385.287C389.126 384.7 388.33 384.37 387.5 384.37C386.67 384.37 385.874 384.7 385.287 385.287C384.7 385.874 384.37 386.67 384.37 387.5Z" fill="black"/>
<path d="M9.37012 212.5C9.37012 212.911 9.45108 213.318 9.60837 213.698C9.76567 214.078 9.99623 214.423 10.2869 214.713C10.5775 215.004 10.9226 215.235 11.3023 215.392C11.6821 215.549 12.0891 215.63 12.5001 215.63C12.9112 215.63 13.3182 215.549 13.6979 215.392C14.0777 215.235 14.4227 215.004 14.7134 214.713C15.004 214.423 15.2346 214.078 15.3919 213.698C15.5492 213.318 15.6301 212.911 15.6301 212.5C15.6301 212.089 15.5492 211.682 15.3919 211.302C15.2346 210.923 15.004 210.578 14.7134 210.287C14.4227 209.996 14.0777 209.766 13.6979 209.608C13.3182 209.451 12.9112 209.37 12.5001 209.37C12.0891 209.37 11.6821 209.451 11.3023 209.608C10.9226 209.766 10.5775 209.996 10.2869 210.287C9.99623 210.578 9.76567 210.923 9.60837 211.302C9.45108 211.682 9.37012 212.089 9.37012 212.5Z" fill="black"/>
<path d="M484.37 487.5C484.37 488.33 484.7 489.126 485.287 489.713C485.874 490.3 486.67 490.63 487.5 490.63C488.33 490.63 489.126 490.3 489.713 489.713C490.3 489.126 490.63 488.33 490.63 487.5C490.63 486.67 490.3 485.874 489.713 485.287C489.126 484.7 488.33 484.37 487.5 484.37C486.67 484.37 485.874 484.7 485.287 485.287C484.7 485.874 484.37 486.67 484.37 487.5ZM334.37 437.5C334.37 438.33 334.7 439.126 335.287 439.713C335.874 440.3 336.67 440.63 337.5 440.63C338.33 440.63 339.126 440.3 339.713 439.713C340.3 439.126 340.63 438.33 340.63 437.5C340.63 436.67 340.3 435.874 339.713 435.287C339.126 434.7 338.33 434.37 337.5 434.37C336.67 434.37 335.874 434.7 335.287 435.287C334.7 435.874 334.37 436.67 334.37 437.5ZM334.37 462.5C334.37 463.33 334.7 464.126 335.287 464.713C335.874 465.3 336.67 465.63 337.5 465.63C338.33 465.63 339.126 465.3 339.713 464.713C340.3 464.126 340.63 463.33 340.63 462.5C340.63 461.67 340.3 460.874 339.713 460.287C339.126 459.7 338.33 459.37 337.5 459.37C336.67 459.37 335.874 459.7 335.287 460.287C334.7 460.874 334.37 461.67 334.37 462.5ZM184.37 412.5C184.37 413.33 184.7 414.126 185.287 414.713C185.874 415.3 186.67 415.63 187.5 415.63C188.33 415.63 189.126 415.3 189.713 414.713C190.3 414.126 190.63 413.33 190.63 412.5C190.63 411.67 190.3 410.874 189.713 410.287C189.126 409.7 188.33 409.37 187.5 409.37C186.67 409.37 185.874 409.7 185.287 410.287C184.7 410.874 184.37 411.67 184.37 412.5ZM459.37 487.5C459.37 487.911 459.451 488.318 459.608 488.698C459.766 489.078 459.996 489.423 460.287 489.713C460.578 490.004 460.923 490.235 461.302 490.392C461.682 490.549 462.089 490.63 462.5 490.63C462.911 490.63 463.318 490.549 463.698 490.392C464.078 490.235 464.423 490.004 464.713 489.713C465.004 489.423 465.235 489.078 465.392 488.698C465.549 488.318 465.63 487.911 465.63 487.5C465.63 487.089 465.549 486.682 465.392 486.302C465.235 485.923 465.004 485.578 464.713 485.287C464.423 484.996 464.078 484.766 463.698 484.608C463.318 484.451 462.911 484.37 462.5 484.37C462.089 484.37 461.682 484.451 461.302 484.608C460.923 484.766 460.578 484.996 460.287 485.287C459.996 485.578 459.766 485.923 459.608 486.302C459.451 486.682 459.37 487.089 459.37 487.5Z" fill="black"/>
<path d="M359.37 162.5C359.37 163.33 359.7 164.126 360.287 164.713C360.874 165.3 361.67 165.63 362.5 165.63C363.33 165.63 364.126 165.3 364.713 164.713C365.3 164.126 365.63 163.33 365.63 162.5C365.63 161.67 365.3 160.874 364.713 160.287C364.126 159.7 363.33 159.37 362.5 159.37C361.67 159.37 360.874 159.7 360.287 160.287C359.7 160.874 359.37 161.67 359.37 162.5ZM234.37 187.5C234.37 188.33 234.7 189.126 235.287 189.713C235.874 190.3 236.67 190.63 237.5 190.63C238.33 190.63 239.126 190.3 239.713 189.713C240.3 189.126 240.63 188.33 240.63 187.5C240.63 186.67 240.3 185.874 239.713 185.287C239.126 184.7 238.33 184.37 237.5 184.37C236.67 184.37 235.874 184.7 235.287 185.287C234.7 185.874 234.37 186.67 234.37 187.5ZM209.37 187.5C209.37 188.33 209.7 189.126 210.287 189.713C210.874 190.3 211.67 190.63 212.5 190.63C213.33 190.63 214.126 190.3 214.713 189.713C215.3 189.126 215.63 188.33 215.63 187.5C215.63 186.67 215.3 185.874 214.713 185.287C214.126 184.7 213.33 184.37 212.5 184.37C211.67 184.37 210.874 184.7 210.287 185.287C209.7 185.874 209.37 186.67 209.37 187.5ZM159.37 187.5C159.37 188.33 159.7 189.126 160.287 189.713C160.874 190.3 161.67 190.63 162.5 190.63C163.33 190.63 164.126 190.3 164.713 189.713C165.3 189.126 165.63 188.33 165.63 187.5C165.63 186.67 165.3 185.874 164.713 185.287C164.126 184.7 163.33 184.37 162.5 184.37C161.67 184.37 160.874 184.7 160.287 185.287C159.7 185.874 159.37 186.67 159.37 187.5ZM134.37 187.5C134.37 188.33 134.7 189.126 135.287 189.713C135.874 190.3 136.67 190.63 137.5 190.63C138.33 190.63 139.126 190.3 139.713 189.713C140.3 189.126 140.63 188.33 140.63 187.5C140.63 186.67 140.3 185.874 139.713 185.287C139.126 184.7 138.33 184.37 137.5 184.37C136.67 184.37 135.874 184.7 135.287 185.287C134.7 185.874 134.37 186.67 134.37 187.5Z" fill="black"/>
<path d="M134.37 387.5C134.37 388.33 134.7 389.126 135.287 389.713C135.874 390.3 136.67 390.63 137.5 390.63C138.33 390.63 139.126 390.3 139.713 389.713C140.3 389.126 140.63 388.33 140.63 387.5C140.63 386.67 140.3 385.874 139.713 385.287C139.126 384.7 138.33 384.37 137.5 384.37C136.67 384.37 135.874 384.7 135.287 385.287C134.7 385.874 134.37 386.67 134.37 387.5ZM159.37 412.5C159.37 413.33 159.7 414.126 160.287 414.713C160.874 415.3 161.67 415.63 162.5 415.63C163.33 415.63 164.126 415.3 164.713 414.713C165.3 414.126 165.63 413.33 165.63 412.5C165.63 411.67 165.3 410.874 164.713 410.287C164.126 409.7 163.33 409.37 162.5 409.37C161.67 409.37 160.874 409.7 160.287 410.287C159.7 410.874 159.37 411.67 159.37 412.5ZM84.3701 437.5C84.3701 438.33 84.6999 439.126 85.2869 439.713C85.8739 440.3 86.67 440.63 87.5001 440.63C88.3302 440.63 89.1264 440.3 89.7134 439.713C90.3003 439.126 90.6301 438.33 90.6301 437.5C90.6301 436.67 90.3003 435.874 89.7134 435.287C89.1264 434.7 88.3302 434.37 87.5001 434.37C86.67 434.37 85.8739 434.7 85.2869 435.287C84.6999 435.874 84.3701 436.67 84.3701 437.5ZM109.37 462.5C109.37 463.33 109.7 464.126 110.287 464.713C110.874 465.3 111.67 465.63 112.5 465.63C113.33 465.63 114.126 465.3 114.713 464.713C115.3 464.126 115.63 463.33 115.63 462.5C115.63 461.67 115.3 460.874 114.713 460.287C114.126 459.7 113.33 459.37 112.5 459.37C111.67 459.37 110.874 459.7 110.287 460.287C109.7 460.874 109.37 461.67 109.37 462.5Z" fill="black"/>
<path d="M359.37 137.5C359.37 138.33 359.7 139.126 360.287 139.713C360.874 140.3 361.67 140.63 362.5 140.63C363.33 140.63 364.126 140.3 364.713 139.713C365.3 139.126 365.63 138.33 365.63 137.5C365.63 136.67 365.3 135.874 364.713 135.287C364.126 134.7 363.33 134.37 362.5 134.37C361.67 134.37 360.874 134.7 360.287 135.287C359.7 135.874 359.37 136.67 359.37 137.5ZM34.3701 137.5C34.3701 137.911 34.4511 138.318 34.6084 138.698C34.7657 139.078 34.9962 139.423 35.2869 139.713C35.5775 140.004 35.9226 140.235 36.3023 140.392C36.6821 140.549 37.0891 140.63 37.5001 140.63C37.9112 140.63 38.3182 140.549 38.6979 140.392C39.0777 140.235 39.4227 140.004 39.7134 139.713C40.004 139.423 40.2346 139.078 40.3919 138.698C40.5492 138.318 40.6301 137.911 40.6301 137.5C40.6301 137.089 40.5492 136.682 40.3919 136.302C40.2346 135.923 40.004 135.578 39.7134 135.287C39.4227 134.996 39.0777 134.766 38.6979 134.608C38.3182 134.451 37.9112 134.37 37.5001 134.37C37.0891 134.37 36.6821 134.451 36.3023 134.608C35.9226 134.766 35.5775 134.996 35.2869 135.287C34.9962 135.578 34.7657 135.923 34.6084 136.302C34.4511 136.682 34.3701 137.089 34.3701 137.5ZM284.37 112.5C284.37 112.911 284.451 113.318 284.608 113.698C284.766 114.078 284.996 114.423 285.287 114.713C285.578 115.004 285.923 115.235 286.302 115.392C286.682 115.549 287.089 115.63 287.5 115.63C287.911 115.63 288.318 115.549 288.698 115.392C289.078 115.235 289.423 115.004 289.713 114.713C290.004 114.423 290.235 114.078 290.392 113.698C290.549 113.318 290.63 112.911 290.63 112.5C290.63 112.089 290.549 111.682 290.392 111.302C290.235 110.923 290.004 110.578 289.713 110.287C289.423 109.996 289.078 109.766 288.698 109.608C288.318 109.451 287.911 109.37 287.5 109.37C287.089 109.37 286.682 109.451 286.302 109.608C285.923 109.766 285.578 109.996 285.287 110.287C284.996 110.578 284.766 110.923 284.608 111.302C284.451 111.682 284.37 112.089 284.37 112.5ZM384.37 87.5001C384.37 88.3302 384.7 89.1264 385.287 89.7134C385.874 90.3003 386.67 90.6301 387.5 90.6301C388.33 90.6301 389.126 90.3003 389.713 89.7134C390.3 89.1264 390.63 88.3302 390.63 87.5001C390.63 86.67 390.3 85.8739 389.713 85.2869C389.126 84.6999 388.33 84.3701 387.5 84.3701C386.67 84.3701 385.874 84.6999 385.287 85.2869C384.7 85.8739 384.37 86.67 384.37 87.5001ZM184.37 112.5C184.37 113.33 184.7 114.126 185.287 114.713C185.874 115.3 186.67 115.63 187.5 115.63C188.33 115.63 189.126 115.3 189.713 114.713C190.3 114.126 190.63 113.33 190.63 112.5C190.63 111.67 190.3 110.874 189.713 110.287C189.126 109.7 188.33 109.37 187.5 109.37C186.67 109.37 185.874 109.7 185.287 110.287C184.7 110.874 184.37 111.67 184.37 112.5Z" fill="black"/>
</mask>
<g mask="url(#mask1_61_657)">
<path d="M137.5 287.5H162.5M137.5 287.5H112.5H87.5H62.5H37.5H12.5H-12.5M137.5 287.5L162.5 312.5" stroke="#252323" stroke-opacity="0.12" stroke-width="4.17"/>
<path d="M156.25 312.5C156.25 314.158 156.908 315.747 158.081 316.919C159.253 318.092 160.842 318.75 162.5 318.75C164.158 318.75 165.747 318.092 166.919 316.919C168.092 315.747 168.75 314.158 168.75 312.5C168.75 310.842 168.092 309.253 166.919 308.081C165.747 306.908 164.158 306.25 162.5 306.25C160.842 306.25 159.253 306.908 158.081 308.081C156.908 309.253 156.25 310.842 156.25 312.5ZM156.25 287.5C156.25 289.158 156.908 290.747 158.081 291.919C159.253 293.092 160.842 293.75 162.5 293.75C164.158 293.75 165.747 293.092 166.919 291.919C168.092 290.747 168.75 289.158 168.75 287.5C168.75 285.842 168.092 284.253 166.919 283.081C165.747 281.908 164.158 281.25 162.5 281.25C160.842 281.25 159.253 281.908 158.081 283.081C156.908 284.253 156.25 285.842 156.25 287.5Z" fill="#252323" fill-opacity="0.12"/>
<path d="M262.5 262.5L287.5 287.5H312.5M262.5 262.5H237.5H212.5M262.5 262.5H287.5H312.5H337.5M212.5 262.5L237.5 287.5H262.5L287.5 312.5H312.5M212.5 262.5H187.5M337.5 262.5L362.5 237.5M337.5 262.5H362.5H387.5H412.5M187.5 262.5L212.5 287.5L237.5 312.5L262.5 337.5H287.5M187.5 262.5H162.5H137.5H112.5H87.5H62.5H37.5H12.5H-12.5" stroke="#3A7CC3" stroke-opacity="0.12" stroke-width="4.17"/>
<path d="M406.25 262.5C406.25 264.158 406.908 265.747 408.081 266.919C409.253 268.092 410.842 268.75 412.5 268.75C414.158 268.75 415.747 268.092 416.919 266.919C418.092 265.747 418.75 264.158 418.75 262.5C418.75 260.842 418.092 259.253 416.919 258.081C415.747 256.908 414.158 256.25 412.5 256.25C410.842 256.25 409.253 256.908 408.081 258.081C406.908 259.253 406.25 260.842 406.25 262.5ZM306.25 287.5C306.25 289.158 306.908 290.747 308.081 291.919C309.253 293.092 310.842 293.75 312.5 293.75C314.158 293.75 315.747 293.092 316.919 291.919C318.092 290.747 318.75 289.158 318.75 287.5C318.75 285.842 318.092 284.253 316.919 283.081C315.747 281.908 314.158 281.25 312.5 281.25C310.842 281.25 309.253 281.908 308.081 283.081C306.908 284.253 306.25 285.842 306.25 287.5ZM306.25 312.5C306.25 314.158 306.908 315.747 308.081 316.919C309.253 318.092 310.842 318.75 312.5 318.75C314.158 318.75 315.747 318.092 316.919 316.919C318.092 315.747 318.75 314.158 318.75 312.5C318.75 310.842 318.092 309.253 316.919 308.081C315.747 306.908 314.158 306.25 312.5 306.25C310.842 306.25 309.253 306.908 308.081 308.081C306.908 309.253 306.25 310.842 306.25 312.5ZM356.25 237.5C356.25 239.158 356.908 240.747 358.081 241.919C359.253 243.092 360.842 243.75 362.5 243.75C364.158 243.75 365.747 243.092 366.919 241.919C368.092 240.747 368.75 239.158 368.75 237.5C368.75 235.842 368.092 234.253 366.919 233.081C365.747 231.908 364.158 231.25 362.5 231.25C360.842 231.25 359.253 231.908 358.081 233.081C356.908 234.253 356.25 235.842 356.25 237.5ZM281.25 337.5C281.25 339.158 281.908 340.747 283.081 341.919C284.253 343.092 285.842 343.75 287.5 343.75C289.158 343.75 290.747 343.092 291.919 341.919C293.092 340.747 293.75 339.158 293.75 337.5C293.75 335.842 293.092 334.253 291.919 333.081C290.747 331.908 289.158 331.25 287.5 331.25C285.842 331.25 284.253 331.908 283.081 333.081C281.908 334.253 281.25 335.842 281.25 337.5Z" fill="#3A7CC3" fill-opacity="0.12"/>
<path d="M337.5 362.5L362.5 337.5H387.5M337.5 362.5H312.5H287.5H262.5H237.5L212.5 337.5M337.5 362.5H362.5H387.5H412.5M487.5 362.5L512.5 387.5H537.5H562.5M487.5 362.5H462.5M487.5 362.5H512.5M462.5 362.5L487.5 337.5H512.5H537.5L562.5 312.5M462.5 362.5H437.5H412.5M412.5 362.5L437.5 387.5L462.5 412.5H487.5H512.5H537.5H562.5M212.5 337.5H237.5M212.5 337.5H187.5H162.5L137.5 312.5H112.5H87.5H62.5H37.5H12.5H-12.5" stroke="#252323" stroke-opacity="0.12" stroke-width="4.17"/>
<path d="M506.25 362.5C506.25 364.158 506.908 365.747 508.081 366.919C509.253 368.092 510.842 368.75 512.5 368.75C514.158 368.75 515.747 368.092 516.919 366.919C518.092 365.747 518.75 364.158 518.75 362.5C518.75 360.842 518.092 359.253 516.919 358.081C515.747 356.908 514.158 356.25 512.5 356.25C510.842 356.25 509.253 356.908 508.081 358.081C506.908 359.253 506.25 360.842 506.25 362.5ZM381.25 337.5C381.25 339.158 381.908 340.747 383.081 341.919C384.253 343.092 385.842 343.75 387.5 343.75C389.158 343.75 390.747 343.092 391.919 341.919C393.092 340.747 393.75 339.158 393.75 337.5C393.75 335.842 393.092 334.253 391.919 333.081C390.747 331.908 389.158 331.25 387.5 331.25C385.842 331.25 384.253 331.908 383.081 333.081C381.908 334.253 381.25 335.842 381.25 337.5ZM556.25 387.5C556.25 389.158 556.908 390.747 558.081 391.919C559.253 393.092 560.842 393.75 562.5 393.75C564.158 393.75 565.747 393.092 566.919 391.919C568.092 390.747 568.75 389.158 568.75 387.5C568.75 385.842 568.092 384.253 566.919 383.081C565.747 381.908 564.158 381.25 562.5 381.25C560.842 381.25 559.253 381.908 558.081 383.081C556.908 384.253 556.25 385.842 556.25 387.5ZM556.25 312.5C556.25 314.158 556.908 315.747 558.081 316.919C559.253 318.092 560.842 318.75 562.5 318.75C564.158 318.75 565.747 318.092 566.919 316.919C568.092 315.747 568.75 314.158 568.75 312.5C568.75 310.842 568.092 309.253 566.919 308.081C565.747 306.908 564.158 306.25 562.5 306.25C560.842 306.25 559.253 306.908 558.081 308.081C556.908 309.253 556.25 310.842 556.25 312.5ZM556.25 412.5C556.25 414.158 556.908 415.747 558.081 416.919C559.253 418.092 560.842 418.75 562.5 418.75C564.158 418.75 565.747 418.092 566.919 416.919C568.092 415.747 568.75 414.158 568.75 412.5C568.75 410.842 568.092 409.253 566.919 408.081C565.747 406.908 564.158 406.25 562.5 406.25C560.842 406.25 559.253 406.908 558.081 408.081C556.908 409.253 556.25 410.842 556.25 412.5ZM231.25 337.5C231.25 339.158 231.908 340.747 233.081 341.919C234.253 343.092 235.842 343.75 237.5 343.75C239.158 343.75 240.747 343.092 241.919 341.919C243.092 340.747 243.75 339.158 243.75 337.5C243.75 335.842 243.092 334.253 241.919 333.081C240.747 331.908 239.158 331.25 237.5 331.25C235.842 331.25 234.253 331.908 233.081 333.081C231.908 334.253 231.25 335.842 231.25 337.5Z" fill="#252323" fill-opacity="0.12"/>
<path d="M187.5 237.5L212.5 212.5H237.5H262.5L287.5 187.5M187.5 237.5H162.5H137.5M187.5 237.5H212.5H237.5H262.5L287.5 212.5H312.5M37.5 237.5L62.5 212.5H87.5H112.5M37.5 237.5H12.5H-12.5M37.5 237.5H62.5H87.5H112.5H137.5M137.5 237.5L162.5 212.5H187.5M312.5 212.5L337.5 187.5H362.5M312.5 212.5H337.5H362.5" stroke="#3A7CC3" stroke-opacity="0.12" stroke-width="4.17"/>
<path d="M356.25 212.5C356.25 214.158 356.908 215.747 358.081 216.919C359.253 218.092 360.842 218.75 362.5 218.75C364.158 218.75 365.747 218.092 366.919 216.919C368.092 215.747 368.75 214.158 368.75 212.5C368.75 210.842 368.092 209.253 366.919 208.081C365.747 206.908 364.158 206.25 362.5 206.25C360.842 206.25 359.253 206.908 358.081 208.081C356.908 209.253 356.25 210.842 356.25 212.5ZM281.25 187.5C281.25 189.158 281.908 190.747 283.081 191.919C284.253 193.092 285.842 193.75 287.5 193.75C289.158 193.75 290.747 193.092 291.919 191.919C293.092 190.747 293.75 189.158 293.75 187.5C293.75 185.842 293.092 184.253 291.919 183.081C290.747 181.908 289.158 181.25 287.5 181.25C285.842 181.25 284.253 181.908 283.081 183.081C281.908 184.253 281.25 185.842 281.25 187.5ZM106.25 212.5C106.25 214.158 106.908 215.747 108.081 216.919C109.253 218.092 110.842 218.75 112.5 218.75C114.158 218.75 115.747 218.092 116.919 216.919C118.092 215.747 118.75 214.158 118.75 212.5C118.75 210.842 118.092 209.253 116.919 208.081C115.747 206.908 114.158 206.25 112.5 206.25C110.842 206.25 109.253 206.908 108.081 208.081C106.908 209.253 106.25 210.842 106.25 212.5ZM181.25 212.5C181.25 214.158 181.908 215.747 183.081 216.919C184.253 218.092 185.842 218.75 187.5 218.75C189.158 218.75 190.747 218.092 191.919 216.919C193.092 215.747 193.75 214.158 193.75 212.5C193.75 210.842 193.092 209.253 191.919 208.081C190.747 206.908 189.158 206.25 187.5 206.25C185.842 206.25 184.253 206.908 183.081 208.081C181.908 209.253 181.25 210.842 181.25 212.5ZM356.25 187.5C356.25 189.158 356.908 190.747 358.081 191.919C359.253 193.092 360.842 193.75 362.5 193.75C364.158 193.75 365.747 193.092 366.919 191.919C368.092 190.747 368.75 189.158 368.75 187.5C368.75 185.842 368.092 184.253 366.919 183.081C365.747 181.908 364.158 181.25 362.5 181.25C360.842 181.25 359.253 181.908 358.081 183.081C356.908 184.253 356.25 185.842 356.25 187.5Z" fill="#3A7CC3" fill-opacity="0.12"/>
<path d="M512.5 462.5L537.5 437.5H562.5H587.5H612.5M512.5 462.5H487.5L462.5 437.5M512.5 462.5H537.5H562.5M462.5 437.5H487.5H512.5M462.5 437.5H437.5L412.5 412.5M412.5 412.5H437.5M412.5 412.5H387.5M387.5 412.5L412.5 387.5M387.5 412.5L362.5 387.5M362.5 387.5H387.5M362.5 387.5H337.5H312.5H287.5H262.5H237.5L212.5 362.5H187.5H162.5L137.5 337.5H112.5H87.5H62.5H37.5H12.5H-12.5" stroke="#252323" stroke-opacity="0.12" stroke-width="4.17"/>
<path d="M556.25 462.5C556.25 464.158 556.908 465.747 558.081 466.919C559.253 468.092 560.842 468.75 562.5 468.75C564.158 468.75 565.747 468.092 566.919 466.919C568.092 465.747 568.75 464.158 568.75 462.5C568.75 460.842 568.092 459.253 566.919 458.081C565.747 456.908 564.158 456.25 562.5 456.25C560.842 456.25 559.253 456.908 558.081 458.081C556.908 459.253 556.25 460.842 556.25 462.5ZM606.25 437.5C606.25 439.158 606.908 440.747 608.081 441.919C609.253 443.092 610.842 443.75 612.5 443.75C614.158 443.75 615.747 443.092 616.919 441.919C618.092 440.747 618.75 439.158 618.75 437.5C618.75 435.842 618.092 434.253 616.919 433.081C615.747 431.908 614.158 431.25 612.5 431.25C610.842 431.25 609.253 431.908 608.081 433.081C606.908 434.253 606.25 435.842 606.25 437.5ZM506.25 437.5C506.25 439.158 506.908 440.747 508.081 441.919C509.253 443.092 510.842 443.75 512.5 443.75C514.158 443.75 515.747 443.092 516.919 441.919C518.092 440.747 518.75 439.158 518.75 437.5C518.75 435.842 518.092 434.253 516.919 433.081C515.747 431.908 514.158 431.25 512.5 431.25C510.842 431.25 509.253 431.908 508.081 433.081C506.908 434.253 506.25 435.842 506.25 437.5ZM431.25 412.5C431.25 414.158 431.908 415.747 433.081 416.919C434.253 418.092 435.842 418.75 437.5 418.75C439.158 418.75 440.747 418.092 441.919 416.919C443.092 415.747 443.75 414.158 443.75 412.5C443.75 410.842 443.092 409.253 441.919 408.081C440.747 406.908 439.158 406.25 437.5 406.25C435.842 406.25 434.253 406.908 433.081 408.081C431.908 409.253 431.25 410.842 431.25 412.5ZM406.25 387.5C406.25 389.158 406.908 390.747 408.081 391.919C409.253 393.092 410.842 393.75 412.5 393.75C414.158 393.75 415.747 393.092 416.919 391.919C418.092 390.747 418.75 389.158 418.75 387.5C418.75 385.842 418.092 384.253 416.919 383.081C415.747 381.908 414.158 381.25 412.5 381.25C410.842 381.25 409.253 381.908 408.081 383.081C406.908 384.253 406.25 385.842 406.25 387.5ZM381.25 387.5C381.25 389.158 381.908 390.747 383.081 391.919C384.253 393.092 385.842 393.75 387.5 393.75C389.158 393.75 390.747 393.092 391.919 391.919C393.092 390.747 393.75 389.158 393.75 387.5C393.75 385.842 393.092 384.253 391.919 383.081C390.747 381.908 389.158 381.25 387.5 381.25C385.842 381.25 384.253 381.908 383.081 383.081C381.908 384.253 381.25 385.842 381.25 387.5Z" fill="#252323" fill-opacity="0.12"/>
<path d="M-12.5 212.5H12.5" stroke="#3A7CC3" stroke-opacity="0.12" stroke-width="4.17"/>
<path d="M6.25 212.5C6.25 214.158 6.90848 215.747 8.08058 216.919C9.25268 218.092 10.8424 218.75 12.5 218.75C14.1576 218.75 15.7473 218.092 16.9194 216.919C18.0915 215.747 18.75 214.158 18.75 212.5C18.75 210.842 18.0915 209.253 16.9194 208.081C15.7473 206.908 14.1576 206.25 12.5 206.25C10.8424 206.25 9.25268 206.908 8.08058 208.081C6.90848 209.253 6.25 210.842 6.25 212.5Z" fill="#3A7CC3" fill-opacity="0.12"/>
<path d="M287.5 412.5L312.5 437.5H337.5M287.5 412.5H262.5H237.5M287.5 412.5H312.5H337.5H362.5L387.5 437.5M237.5 412.5L262.5 437.5H287.5L312.5 462.5H337.5M237.5 412.5L212.5 387.5H187.5H162.5M162.5 387.5L187.5 412.5M162.5 387.5L137.5 362.5H112.5H87.5H62.5H37.5H12.5H-12.5M387.5 437.5L412.5 462.5L437.5 487.5H462.5M387.5 437.5H412.5L437.5 462.5H462.5L487.5 487.5" stroke="#3A7CC3" stroke-opacity="0.12" stroke-width="4.17"/>
<path d="M481.25 487.5C481.25 489.158 481.908 490.747 483.081 491.919C484.253 493.092 485.842 493.75 487.5 493.75C489.158 493.75 490.747 493.092 491.919 491.919C493.092 490.747 493.75 489.158 493.75 487.5C493.75 485.842 493.092 484.253 491.919 483.081C490.747 481.908 489.158 481.25 487.5 481.25C485.842 481.25 484.253 481.908 483.081 483.081C481.908 484.253 481.25 485.842 481.25 487.5ZM331.25 437.5C331.25 439.158 331.908 440.747 333.081 441.919C334.253 443.092 335.842 443.75 337.5 443.75C339.158 443.75 340.747 443.092 341.919 441.919C343.092 440.747 343.75 439.158 343.75 437.5C343.75 435.842 343.092 434.253 341.919 433.081C340.747 431.908 339.158 431.25 337.5 431.25C335.842 431.25 334.253 431.908 333.081 433.081C331.908 434.253 331.25 435.842 331.25 437.5ZM331.25 462.5C331.25 464.158 331.908 465.747 333.081 466.919C334.253 468.092 335.842 468.75 337.5 468.75C339.158 468.75 340.747 468.092 341.919 466.919C343.092 465.747 343.75 464.158 343.75 462.5C343.75 460.842 343.092 459.253 341.919 458.081C340.747 456.908 339.158 456.25 337.5 456.25C335.842 456.25 334.253 456.908 333.081 458.081C331.908 459.253 331.25 460.842 331.25 462.5ZM181.25 412.5C181.25 414.158 181.908 415.747 183.081 416.919C184.253 418.092 185.842 418.75 187.5 418.75C189.158 418.75 190.747 418.092 191.919 416.919C193.092 415.747 193.75 414.158 193.75 412.5C193.75 410.842 193.092 409.253 191.919 408.081C190.747 406.908 189.158 406.25 187.5 406.25C185.842 406.25 184.253 406.908 183.081 408.081C181.908 409.253 181.25 410.842 181.25 412.5ZM456.25 487.5C456.25 489.158 456.908 490.747 458.081 491.919C459.253 493.092 460.842 493.75 462.5 493.75C464.158 493.75 465.747 493.092 466.919 491.919C468.092 490.747 468.75 489.158 468.75 487.5C468.75 485.842 468.092 484.253 466.919 483.081C465.747 481.908 464.158 481.25 462.5 481.25C460.842 481.25 459.253 481.908 458.081 483.081C456.908 484.253 456.25 485.842 456.25 487.5Z" fill="#3A7CC3" fill-opacity="0.12"/>
<path d="M212.5 162.5L237.5 187.5M212.5 162.5H187.5H162.5M212.5 162.5H237.5H262.5H287.5H312.5H337.5H362.5M162.5 162.5L187.5 187.5H212.5M162.5 162.5H137.5M137.5 162.5L162.5 187.5M137.5 162.5L112.5 187.5M112.5 187.5H137.5M112.5 187.5H87.5H62.5H37.5H12.5H-12.5" stroke="#252323" stroke-opacity="0.12" stroke-width="4.17"/>
<path d="M356.25 162.5C356.25 164.158 356.908 165.747 358.081 166.919C359.253 168.092 360.842 168.75 362.5 168.75C364.158 168.75 365.747 168.092 366.919 166.919C368.092 165.747 368.75 164.158 368.75 162.5C368.75 160.842 368.092 159.253 366.919 158.081C365.747 156.908 364.158 156.25 362.5 156.25C360.842 156.25 359.253 156.908 358.081 158.081C356.908 159.253 356.25 160.842 356.25 162.5ZM231.25 187.5C231.25 189.158 231.908 190.747 233.081 191.919C234.253 193.092 235.842 193.75 237.5 193.75C239.158 193.75 240.747 193.092 241.919 191.919C243.092 190.747 243.75 189.158 243.75 187.5C243.75 185.842 243.092 184.253 241.919 183.081C240.747 181.908 239.158 181.25 237.5 181.25C235.842 181.25 234.253 181.908 233.081 183.081C231.908 184.253 231.25 185.842 231.25 187.5ZM206.25 187.5C206.25 189.158 206.908 190.747 208.081 191.919C209.253 193.092 210.842 193.75 212.5 193.75C214.158 193.75 215.747 193.092 216.919 191.919C218.092 190.747 218.75 189.158 218.75 187.5C218.75 185.842 218.092 184.253 216.919 183.081C215.747 181.908 214.158 181.25 212.5 181.25C210.842 181.25 209.253 181.908 208.081 183.081C206.908 184.253 206.25 185.842 206.25 187.5ZM156.25 187.5C156.25 189.158 156.908 190.747 158.081 191.919C159.253 193.092 160.842 193.75 162.5 193.75C164.158 193.75 165.747 193.092 166.919 191.919C168.092 190.747 168.75 189.158 168.75 187.5C168.75 185.842 168.092 184.253 166.919 183.081C165.747 181.908 164.158 181.25 162.5 181.25C160.842 181.25 159.253 181.908 158.081 183.081C156.908 184.253 156.25 185.842 156.25 187.5ZM131.25 187.5C131.25 189.158 131.908 190.747 133.081 191.919C134.253 193.092 135.842 193.75 137.5 193.75C139.158 193.75 140.747 193.092 141.919 191.919C143.092 190.747 143.75 189.158 143.75 187.5C143.75 185.842 143.092 184.253 141.919 183.081C140.747 181.908 139.158 181.25 137.5 181.25C135.842 181.25 134.253 181.908 133.081 183.081C131.908 184.253 131.25 185.842 131.25 187.5Z" fill="#252323" fill-opacity="0.12"/>
<path d="M87.5 387.5L112.5 412.5H137.5H162.5M87.5 387.5H62.5H37.5M87.5 387.5H112.5H137.5M37.5 387.5L62.5 412.5L87.5 437.5M37.5 387.5H12.5M12.5 387.5L37.5 412.5L62.5 437.5L87.5 462.5H112.5M12.5 387.5H-12.5" stroke="#3A7CC3" stroke-opacity="0.12" stroke-width="4.17"/>
<path d="M131.25 387.5C131.25 389.158 131.908 390.747 133.081 391.919C134.253 393.092 135.842 393.75 137.5 393.75C139.158 393.75 140.747 393.092 141.919 391.919C143.092 390.747 143.75 389.158 143.75 387.5C143.75 385.842 143.092 384.253 141.919 383.081C140.747 381.908 139.158 381.25 137.5 381.25C135.842 381.25 134.253 381.908 133.081 383.081C131.908 384.253 131.25 385.842 131.25 387.5ZM156.25 412.5C156.25 414.158 156.908 415.747 158.081 416.919C159.253 418.092 160.842 418.75 162.5 418.75C164.158 418.75 165.747 418.092 166.919 416.919C168.092 415.747 168.75 414.158 168.75 412.5C168.75 410.842 168.092 409.253 166.919 408.081C165.747 406.908 164.158 406.25 162.5 406.25C160.842 406.25 159.253 406.908 158.081 408.081C156.908 409.253 156.25 410.842 156.25 412.5ZM81.25 437.5C81.25 439.158 81.9085 440.747 83.0806 441.919C84.2527 443.092 85.8424 443.75 87.5 443.75C89.1576 443.75 90.7473 443.092 91.9194 441.919C93.0915 440.747 93.75 439.158 93.75 437.5C93.75 435.842 93.0915 434.253 91.9194 433.081C90.7473 431.908 89.1576 431.25 87.5 431.25C85.8424 431.25 84.2527 431.908 83.0806 433.081C81.9085 434.253 81.25 435.842 81.25 437.5ZM106.25 462.5C106.25 464.158 106.908 465.747 108.081 466.919C109.253 468.092 110.842 468.75 112.5 468.75C114.158 468.75 115.747 468.092 116.919 466.919C118.092 465.747 118.75 464.158 118.75 462.5C118.75 460.842 118.092 459.253 116.919 458.081C115.747 456.908 114.158 456.25 112.5 456.25C110.842 456.25 109.253 456.908 108.081 458.081C106.908 459.253 106.25 460.842 106.25 462.5Z" fill="#3A7CC3" fill-opacity="0.12"/>
<path d="M12.5 162.5L37.5 137.5M12.5 162.5H-12.5M12.5 162.5H37.5H62.5H87.5M212.5 137.5L237.5 112.5H262.5H287.5M212.5 137.5H187.5H162.5H137.5L112.5 162.5H87.5M212.5 137.5H237.5H262.5H287.5H312.5M312.5 137.5L337.5 112.5L362.5 87.5H387.5M312.5 137.5H337.5H362.5M87.5 162.5L112.5 137.5L137.5 112.5H162.5H187.5" stroke="#252323" stroke-opacity="0.12" stroke-width="4.17"/>
<path d="M356.25 137.5C356.25 139.158 356.908 140.747 358.081 141.919C359.253 143.092 360.842 143.75 362.5 143.75C364.158 143.75 365.747 143.092 366.919 141.919C368.092 140.747 368.75 139.158 368.75 137.5C368.75 135.842 368.092 134.253 366.919 133.081C365.747 131.908 364.158 131.25 362.5 131.25C360.842 131.25 359.253 131.908 358.081 133.081C356.908 134.253 356.25 135.842 356.25 137.5ZM31.25 137.5C31.25 139.158 31.9085 140.747 33.0806 141.919C34.2527 143.092 35.8424 143.75 37.5 143.75C39.1576 143.75 40.7473 143.092 41.9194 141.919C43.0915 140.747 43.75 139.158 43.75 137.5C43.75 135.842 43.0915 134.253 41.9194 133.081C40.7473 131.908 39.1576 131.25 37.5 131.25C35.8424 131.25 34.2527 131.908 33.0806 133.081C31.9085 134.253 31.25 135.842 31.25 137.5ZM281.25 112.5C281.25 114.158 281.908 115.747 283.081 116.919C284.253 118.092 285.842 118.75 287.5 118.75C289.158 118.75 290.747 118.092 291.919 116.919C293.092 115.747 293.75 114.158 293.75 112.5C293.75 110.842 293.092 109.253 291.919 108.081C290.747 106.908 289.158 106.25 287.5 106.25C285.842 106.25 284.253 106.908 283.081 108.081C281.908 109.253 281.25 110.842 281.25 112.5ZM381.25 87.5C381.25 89.1576 381.908 90.7473 383.081 91.9194C384.253 93.0915 385.842 93.75 387.5 93.75C389.158 93.75 390.747 93.0915 391.919 91.9194C393.092 90.7473 393.75 89.1576 393.75 87.5C393.75 85.8424 393.092 84.2527 391.919 83.0806C390.747 81.9085 389.158 81.25 387.5 81.25C385.842 81.25 384.253 81.9085 383.081 83.0806C381.908 84.2527 381.25 85.8424 381.25 87.5ZM181.25 112.5C181.25 114.158 181.908 115.747 183.081 116.919C184.253 118.092 185.842 118.75 187.5 118.75C189.158 118.75 190.747 118.092 191.919 116.919C193.092 115.747 193.75 114.158 193.75 112.5C193.75 110.842 193.092 109.253 191.919 108.081C190.747 106.908 189.158 106.25 187.5 106.25C185.842 106.25 184.253 106.908 183.081 108.081C181.908 109.253 181.25 110.842 181.25 112.5Z" fill="#252323" fill-opacity="0.12"/>
</g>
</g>
</g>
<defs>
<clipPath id="clip0_61_657">
<rect width="1440" height="560" fill="white"/>
</clipPath>
</defs>
</svg>
