<svg xmlns="http://www.w3.org/2000/svg" version="1.1" xmlns:xlink="http://www.w3.org/1999/xlink" xmlns:svgjs="http://svgjs.dev/svgjs" width="1440" height="560" preserveAspectRatio="none" viewBox="0 0 1440 560"><g mask="url(&quot;#SvgjsMask2700&quot;)" fill="none"><path d="M17.02 125.45L59.46 149.95L59.46 198.95L17.02 223.45L-25.42 198.95L-25.42 149.95zM17.02 272.45L59.46 296.95L59.46 345.95L17.02 370.45L-25.42 345.95L-25.42 296.95zM101.89 566.45L144.33 590.95L144.33 639.95L101.89 664.45L59.46 639.95L59.46 590.95zM186.77 125.45L229.2 149.95L229.2 198.95L186.77 223.45L144.33 198.95L144.33 149.95zM229.2 345.95L271.64 370.45L271.64 419.45L229.2 443.95L186.77 419.45L186.77 370.45zM271.64 125.45L314.08 149.95L314.08 198.95L271.64 223.45L229.2 198.95L229.2 149.95zM314.08 198.95L356.51 223.45L356.51 272.45L314.08 296.95L271.64 272.45L271.64 223.45zM271.64 272.45L314.08 296.95L314.08 345.95L271.64 370.45L229.2 345.95L229.2 296.95zM483.82 51.95L526.26 76.45L526.26 125.45L483.82 149.95L441.38 125.45L441.38 76.45zM526.26 -21.55L568.69 2.95L568.69 51.95L526.26 76.45L483.82 51.95L483.82 2.95zM526.26 125.45L568.69 149.95L568.69 198.95L526.26 223.45L483.82 198.95L483.82 149.95zM568.69 345.95L611.13 370.45L611.13 419.45L568.69 443.95L526.26 419.45L526.26 370.45zM526.26 566.45L568.69 590.95L568.69 639.95L526.26 664.45L483.82 639.95L483.82 590.95zM738.44 345.95L780.88 370.45L780.88 419.45L738.44 443.95L696 419.45L696 370.45zM823.31 51.95L865.75 76.45L865.75 125.45L823.31 149.95L780.88 125.45L780.88 76.45zM780.88 125.45L823.31 149.95L823.31 198.95L780.88 223.45L738.44 198.95L738.44 149.95zM780.88 272.45L823.31 296.95L823.31 345.95L780.88 370.45L738.44 345.95L738.44 296.95zM780.88 419.45L823.31 443.95L823.31 492.95L780.88 517.45L738.44 492.95L738.44 443.95zM908.19 51.95L950.62 76.45L950.62 125.45L908.19 149.95L865.75 125.45L865.75 76.45zM865.75 125.45L908.19 149.95L908.19 198.95L865.75 223.45L823.31 198.95L823.31 149.95zM908.19 198.95L950.62 223.45L950.62 272.45L908.19 296.95L865.75 272.45L865.75 223.45zM865.75 566.45L908.19 590.95L908.19 639.95L865.75 664.45L823.31 639.95L823.31 590.95zM993.06 51.95L1035.49 76.45L1035.49 125.45L993.06 149.95L950.62 125.45L950.62 76.45zM993.06 492.95L1035.49 517.45L1035.49 566.45L993.06 590.95L950.62 566.45L950.62 517.45zM1035.49 125.45L1077.93 149.95L1077.93 198.95L1035.49 223.45L993.06 198.95L993.06 149.95zM1077.93 198.95L1120.37 223.45L1120.37 272.45L1077.93 296.95L1035.49 272.45L1035.49 223.45zM1077.93 492.95L1120.37 517.45L1120.37 566.45L1077.93 590.95L1035.49 566.45L1035.49 517.45zM1035.49 566.45L1077.93 590.95L1077.93 639.95L1035.49 664.45L993.06 639.95L993.06 590.95zM1120.37 -21.55L1162.8 2.95L1162.8 51.95L1120.37 76.45L1077.93 51.95L1077.93 2.95zM1162.8 51.95L1205.24 76.45L1205.24 125.45L1162.8 149.95L1120.37 125.45L1120.37 76.45zM1162.8 198.95L1205.24 223.45L1205.24 272.45L1162.8 296.95L1120.37 272.45L1120.37 223.45zM1120.37 272.45L1162.8 296.95L1162.8 345.95L1120.37 370.45L1077.93 345.95L1077.93 296.95zM1247.68 345.95L1290.11 370.45L1290.11 419.45L1247.68 443.95L1205.24 419.45L1205.24 370.45zM1417.42 198.95L1459.86 223.45L1459.86 272.45L1417.42 296.95L1374.99 272.45L1374.99 223.45z" stroke="rgba(203, 204, 218, 1)" stroke-width="2"></path><path d="M12.12 125.45 a4.9 4.9 0 1 0 9.8 0 a4.9 4.9 0 1 0 -9.8 0zM54.56 149.95 a4.9 4.9 0 1 0 9.8 0 a4.9 4.9 0 1 0 -9.8 0zM54.56 198.95 a4.9 4.9 0 1 0 9.8 0 a4.9 4.9 0 1 0 -9.8 0zM12.12 223.45 a4.9 4.9 0 1 0 9.8 0 a4.9 4.9 0 1 0 -9.8 0zM-30.32 198.95 a4.9 4.9 0 1 0 9.8 0 a4.9 4.9 0 1 0 -9.8 0zM-30.32 149.95 a4.9 4.9 0 1 0 9.8 0 a4.9 4.9 0 1 0 -9.8 0zM12.12 272.45 a4.9 4.9 0 1 0 9.8 0 a4.9 4.9 0 1 0 -9.8 0zM54.56 296.95 a4.9 4.9 0 1 0 9.8 0 a4.9 4.9 0 1 0 -9.8 0zM54.56 345.95 a4.9 4.9 0 1 0 9.8 0 a4.9 4.9 0 1 0 -9.8 0zM12.12 370.45 a4.9 4.9 0 1 0 9.8 0 a4.9 4.9 0 1 0 -9.8 0zM-30.32 345.95 a4.9 4.9 0 1 0 9.8 0 a4.9 4.9 0 1 0 -9.8 0zM-30.32 296.95 a4.9 4.9 0 1 0 9.8 0 a4.9 4.9 0 1 0 -9.8 0zM96.99 566.45 a4.9 4.9 0 1 0 9.8 0 a4.9 4.9 0 1 0 -9.8 0zM139.43 590.95 a4.9 4.9 0 1 0 9.8 0 a4.9 4.9 0 1 0 -9.8 0zM139.43 639.95 a4.9 4.9 0 1 0 9.8 0 a4.9 4.9 0 1 0 -9.8 0zM96.99 664.45 a4.9 4.9 0 1 0 9.8 0 a4.9 4.9 0 1 0 -9.8 0zM54.56 639.95 a4.9 4.9 0 1 0 9.8 0 a4.9 4.9 0 1 0 -9.8 0zM54.56 590.95 a4.9 4.9 0 1 0 9.8 0 a4.9 4.9 0 1 0 -9.8 0zM181.87 125.45 a4.9 4.9 0 1 0 9.8 0 a4.9 4.9 0 1 0 -9.8 0zM224.3 149.95 a4.9 4.9 0 1 0 9.8 0 a4.9 4.9 0 1 0 -9.8 0zM224.3 198.95 a4.9 4.9 0 1 0 9.8 0 a4.9 4.9 0 1 0 -9.8 0zM181.87 223.45 a4.9 4.9 0 1 0 9.8 0 a4.9 4.9 0 1 0 -9.8 0zM139.43 198.95 a4.9 4.9 0 1 0 9.8 0 a4.9 4.9 0 1 0 -9.8 0zM139.43 149.95 a4.9 4.9 0 1 0 9.8 0 a4.9 4.9 0 1 0 -9.8 0zM224.3 345.95 a4.9 4.9 0 1 0 9.8 0 a4.9 4.9 0 1 0 -9.8 0zM266.74 370.45 a4.9 4.9 0 1 0 9.8 0 a4.9 4.9 0 1 0 -9.8 0zM266.74 419.45 a4.9 4.9 0 1 0 9.8 0 a4.9 4.9 0 1 0 -9.8 0zM224.3 443.95 a4.9 4.9 0 1 0 9.8 0 a4.9 4.9 0 1 0 -9.8 0zM181.87 419.45 a4.9 4.9 0 1 0 9.8 0 a4.9 4.9 0 1 0 -9.8 0zM181.87 370.45 a4.9 4.9 0 1 0 9.8 0 a4.9 4.9 0 1 0 -9.8 0zM266.74 125.45 a4.9 4.9 0 1 0 9.8 0 a4.9 4.9 0 1 0 -9.8 0zM309.18 149.95 a4.9 4.9 0 1 0 9.8 0 a4.9 4.9 0 1 0 -9.8 0zM309.18 198.95 a4.9 4.9 0 1 0 9.8 0 a4.9 4.9 0 1 0 -9.8 0zM266.74 223.45 a4.9 4.9 0 1 0 9.8 0 a4.9 4.9 0 1 0 -9.8 0zM351.61 223.45 a4.9 4.9 0 1 0 9.8 0 a4.9 4.9 0 1 0 -9.8 0zM351.61 272.45 a4.9 4.9 0 1 0 9.8 0 a4.9 4.9 0 1 0 -9.8 0zM309.18 296.95 a4.9 4.9 0 1 0 9.8 0 a4.9 4.9 0 1 0 -9.8 0zM266.74 272.45 a4.9 4.9 0 1 0 9.8 0 a4.9 4.9 0 1 0 -9.8 0zM309.18 345.95 a4.9 4.9 0 1 0 9.8 0 a4.9 4.9 0 1 0 -9.8 0zM224.3 296.95 a4.9 4.9 0 1 0 9.8 0 a4.9 4.9 0 1 0 -9.8 0zM478.92 51.95 a4.9 4.9 0 1 0 9.8 0 a4.9 4.9 0 1 0 -9.8 0zM521.36 76.45 a4.9 4.9 0 1 0 9.8 0 a4.9 4.9 0 1 0 -9.8 0zM521.36 125.45 a4.9 4.9 0 1 0 9.8 0 a4.9 4.9 0 1 0 -9.8 0zM478.92 149.95 a4.9 4.9 0 1 0 9.8 0 a4.9 4.9 0 1 0 -9.8 0zM436.48 125.45 a4.9 4.9 0 1 0 9.8 0 a4.9 4.9 0 1 0 -9.8 0zM436.48 76.45 a4.9 4.9 0 1 0 9.8 0 a4.9 4.9 0 1 0 -9.8 0zM521.36 -21.55 a4.9 4.9 0 1 0 9.8 0 a4.9 4.9 0 1 0 -9.8 0zM563.79 2.95 a4.9 4.9 0 1 0 9.8 0 a4.9 4.9 0 1 0 -9.8 0zM563.79 51.95 a4.9 4.9 0 1 0 9.8 0 a4.9 4.9 0 1 0 -9.8 0zM478.92 2.95 a4.9 4.9 0 1 0 9.8 0 a4.9 4.9 0 1 0 -9.8 0zM563.79 149.95 a4.9 4.9 0 1 0 9.8 0 a4.9 4.9 0 1 0 -9.8 0zM563.79 198.95 a4.9 4.9 0 1 0 9.8 0 a4.9 4.9 0 1 0 -9.8 0zM521.36 223.45 a4.9 4.9 0 1 0 9.8 0 a4.9 4.9 0 1 0 -9.8 0zM478.92 198.95 a4.9 4.9 0 1 0 9.8 0 a4.9 4.9 0 1 0 -9.8 0zM563.79 345.95 a4.9 4.9 0 1 0 9.8 0 a4.9 4.9 0 1 0 -9.8 0zM606.23 370.45 a4.9 4.9 0 1 0 9.8 0 a4.9 4.9 0 1 0 -9.8 0zM606.23 419.45 a4.9 4.9 0 1 0 9.8 0 a4.9 4.9 0 1 0 -9.8 0zM563.79 443.95 a4.9 4.9 0 1 0 9.8 0 a4.9 4.9 0 1 0 -9.8 0zM521.36 419.45 a4.9 4.9 0 1 0 9.8 0 a4.9 4.9 0 1 0 -9.8 0zM521.36 370.45 a4.9 4.9 0 1 0 9.8 0 a4.9 4.9 0 1 0 -9.8 0zM521.36 566.45 a4.9 4.9 0 1 0 9.8 0 a4.9 4.9 0 1 0 -9.8 0zM563.79 590.95 a4.9 4.9 0 1 0 9.8 0 a4.9 4.9 0 1 0 -9.8 0zM563.79 639.95 a4.9 4.9 0 1 0 9.8 0 a4.9 4.9 0 1 0 -9.8 0zM521.36 664.45 a4.9 4.9 0 1 0 9.8 0 a4.9 4.9 0 1 0 -9.8 0zM478.92 639.95 a4.9 4.9 0 1 0 9.8 0 a4.9 4.9 0 1 0 -9.8 0zM478.92 590.95 a4.9 4.9 0 1 0 9.8 0 a4.9 4.9 0 1 0 -9.8 0zM733.54 345.95 a4.9 4.9 0 1 0 9.8 0 a4.9 4.9 0 1 0 -9.8 0zM775.98 370.45 a4.9 4.9 0 1 0 9.8 0 a4.9 4.9 0 1 0 -9.8 0zM775.98 419.45 a4.9 4.9 0 1 0 9.8 0 a4.9 4.9 0 1 0 -9.8 0zM733.54 443.95 a4.9 4.9 0 1 0 9.8 0 a4.9 4.9 0 1 0 -9.8 0zM691.1 419.45 a4.9 4.9 0 1 0 9.8 0 a4.9 4.9 0 1 0 -9.8 0zM691.1 370.45 a4.9 4.9 0 1 0 9.8 0 a4.9 4.9 0 1 0 -9.8 0zM818.41 51.95 a4.9 4.9 0 1 0 9.8 0 a4.9 4.9 0 1 0 -9.8 0zM860.85 76.45 a4.9 4.9 0 1 0 9.8 0 a4.9 4.9 0 1 0 -9.8 0zM860.85 125.45 a4.9 4.9 0 1 0 9.8 0 a4.9 4.9 0 1 0 -9.8 0zM818.41 149.95 a4.9 4.9 0 1 0 9.8 0 a4.9 4.9 0 1 0 -9.8 0zM775.98 125.45 a4.9 4.9 0 1 0 9.8 0 a4.9 4.9 0 1 0 -9.8 0zM775.98 76.45 a4.9 4.9 0 1 0 9.8 0 a4.9 4.9 0 1 0 -9.8 0zM818.41 198.95 a4.9 4.9 0 1 0 9.8 0 a4.9 4.9 0 1 0 -9.8 0zM775.98 223.45 a4.9 4.9 0 1 0 9.8 0 a4.9 4.9 0 1 0 -9.8 0zM733.54 198.95 a4.9 4.9 0 1 0 9.8 0 a4.9 4.9 0 1 0 -9.8 0zM733.54 149.95 a4.9 4.9 0 1 0 9.8 0 a4.9 4.9 0 1 0 -9.8 0zM775.98 272.45 a4.9 4.9 0 1 0 9.8 0 a4.9 4.9 0 1 0 -9.8 0zM818.41 296.95 a4.9 4.9 0 1 0 9.8 0 a4.9 4.9 0 1 0 -9.8 0zM818.41 345.95 a4.9 4.9 0 1 0 9.8 0 a4.9 4.9 0 1 0 -9.8 0zM733.54 296.95 a4.9 4.9 0 1 0 9.8 0 a4.9 4.9 0 1 0 -9.8 0zM818.41 443.95 a4.9 4.9 0 1 0 9.8 0 a4.9 4.9 0 1 0 -9.8 0zM818.41 492.95 a4.9 4.9 0 1 0 9.8 0 a4.9 4.9 0 1 0 -9.8 0zM775.98 517.45 a4.9 4.9 0 1 0 9.8 0 a4.9 4.9 0 1 0 -9.8 0zM733.54 492.95 a4.9 4.9 0 1 0 9.8 0 a4.9 4.9 0 1 0 -9.8 0zM903.29 51.95 a4.9 4.9 0 1 0 9.8 0 a4.9 4.9 0 1 0 -9.8 0zM945.72 76.45 a4.9 4.9 0 1 0 9.8 0 a4.9 4.9 0 1 0 -9.8 0zM945.72 125.45 a4.9 4.9 0 1 0 9.8 0 a4.9 4.9 0 1 0 -9.8 0zM903.29 149.95 a4.9 4.9 0 1 0 9.8 0 a4.9 4.9 0 1 0 -9.8 0zM903.29 198.95 a4.9 4.9 0 1 0 9.8 0 a4.9 4.9 0 1 0 -9.8 0zM860.85 223.45 a4.9 4.9 0 1 0 9.8 0 a4.9 4.9 0 1 0 -9.8 0zM945.72 223.45 a4.9 4.9 0 1 0 9.8 0 a4.9 4.9 0 1 0 -9.8 0zM945.72 272.45 a4.9 4.9 0 1 0 9.8 0 a4.9 4.9 0 1 0 -9.8 0zM903.29 296.95 a4.9 4.9 0 1 0 9.8 0 a4.9 4.9 0 1 0 -9.8 0zM860.85 272.45 a4.9 4.9 0 1 0 9.8 0 a4.9 4.9 0 1 0 -9.8 0zM860.85 566.45 a4.9 4.9 0 1 0 9.8 0 a4.9 4.9 0 1 0 -9.8 0zM903.29 590.95 a4.9 4.9 0 1 0 9.8 0 a4.9 4.9 0 1 0 -9.8 0zM903.29 639.95 a4.9 4.9 0 1 0 9.8 0 a4.9 4.9 0 1 0 -9.8 0zM860.85 664.45 a4.9 4.9 0 1 0 9.8 0 a4.9 4.9 0 1 0 -9.8 0zM818.41 639.95 a4.9 4.9 0 1 0 9.8 0 a4.9 4.9 0 1 0 -9.8 0zM818.41 590.95 a4.9 4.9 0 1 0 9.8 0 a4.9 4.9 0 1 0 -9.8 0zM988.16 51.95 a4.9 4.9 0 1 0 9.8 0 a4.9 4.9 0 1 0 -9.8 0zM1030.59 76.45 a4.9 4.9 0 1 0 9.8 0 a4.9 4.9 0 1 0 -9.8 0zM1030.59 125.45 a4.9 4.9 0 1 0 9.8 0 a4.9 4.9 0 1 0 -9.8 0zM988.16 149.95 a4.9 4.9 0 1 0 9.8 0 a4.9 4.9 0 1 0 -9.8 0zM988.16 492.95 a4.9 4.9 0 1 0 9.8 0 a4.9 4.9 0 1 0 -9.8 0zM1030.59 517.45 a4.9 4.9 0 1 0 9.8 0 a4.9 4.9 0 1 0 -9.8 0zM1030.59 566.45 a4.9 4.9 0 1 0 9.8 0 a4.9 4.9 0 1 0 -9.8 0zM988.16 590.95 a4.9 4.9 0 1 0 9.8 0 a4.9 4.9 0 1 0 -9.8 0zM945.72 566.45 a4.9 4.9 0 1 0 9.8 0 a4.9 4.9 0 1 0 -9.8 0zM945.72 517.45 a4.9 4.9 0 1 0 9.8 0 a4.9 4.9 0 1 0 -9.8 0zM1073.03 149.95 a4.9 4.9 0 1 0 9.8 0 a4.9 4.9 0 1 0 -9.8 0zM1073.03 198.95 a4.9 4.9 0 1 0 9.8 0 a4.9 4.9 0 1 0 -9.8 0zM1030.59 223.45 a4.9 4.9 0 1 0 9.8 0 a4.9 4.9 0 1 0 -9.8 0zM988.16 198.95 a4.9 4.9 0 1 0 9.8 0 a4.9 4.9 0 1 0 -9.8 0zM1115.47 223.45 a4.9 4.9 0 1 0 9.8 0 a4.9 4.9 0 1 0 -9.8 0zM1115.47 272.45 a4.9 4.9 0 1 0 9.8 0 a4.9 4.9 0 1 0 -9.8 0zM1073.03 296.95 a4.9 4.9 0 1 0 9.8 0 a4.9 4.9 0 1 0 -9.8 0zM1030.59 272.45 a4.9 4.9 0 1 0 9.8 0 a4.9 4.9 0 1 0 -9.8 0zM1073.03 492.95 a4.9 4.9 0 1 0 9.8 0 a4.9 4.9 0 1 0 -9.8 0zM1115.47 517.45 a4.9 4.9 0 1 0 9.8 0 a4.9 4.9 0 1 0 -9.8 0zM1115.47 566.45 a4.9 4.9 0 1 0 9.8 0 a4.9 4.9 0 1 0 -9.8 0zM1073.03 590.95 a4.9 4.9 0 1 0 9.8 0 a4.9 4.9 0 1 0 -9.8 0zM1073.03 639.95 a4.9 4.9 0 1 0 9.8 0 a4.9 4.9 0 1 0 -9.8 0zM1030.59 664.45 a4.9 4.9 0 1 0 9.8 0 a4.9 4.9 0 1 0 -9.8 0zM988.16 639.95 a4.9 4.9 0 1 0 9.8 0 a4.9 4.9 0 1 0 -9.8 0zM1115.47 -21.55 a4.9 4.9 0 1 0 9.8 0 a4.9 4.9 0 1 0 -9.8 0zM1157.9 2.95 a4.9 4.9 0 1 0 9.8 0 a4.9 4.9 0 1 0 -9.8 0zM1157.9 51.95 a4.9 4.9 0 1 0 9.8 0 a4.9 4.9 0 1 0 -9.8 0zM1115.47 76.45 a4.9 4.9 0 1 0 9.8 0 a4.9 4.9 0 1 0 -9.8 0zM1073.03 51.95 a4.9 4.9 0 1 0 9.8 0 a4.9 4.9 0 1 0 -9.8 0zM1073.03 2.95 a4.9 4.9 0 1 0 9.8 0 a4.9 4.9 0 1 0 -9.8 0zM1200.34 76.45 a4.9 4.9 0 1 0 9.8 0 a4.9 4.9 0 1 0 -9.8 0zM1200.34 125.45 a4.9 4.9 0 1 0 9.8 0 a4.9 4.9 0 1 0 -9.8 0zM1157.9 149.95 a4.9 4.9 0 1 0 9.8 0 a4.9 4.9 0 1 0 -9.8 0zM1115.47 125.45 a4.9 4.9 0 1 0 9.8 0 a4.9 4.9 0 1 0 -9.8 0zM1157.9 198.95 a4.9 4.9 0 1 0 9.8 0 a4.9 4.9 0 1 0 -9.8 0zM1200.34 223.45 a4.9 4.9 0 1 0 9.8 0 a4.9 4.9 0 1 0 -9.8 0zM1200.34 272.45 a4.9 4.9 0 1 0 9.8 0 a4.9 4.9 0 1 0 -9.8 0zM1157.9 296.95 a4.9 4.9 0 1 0 9.8 0 a4.9 4.9 0 1 0 -9.8 0zM1157.9 345.95 a4.9 4.9 0 1 0 9.8 0 a4.9 4.9 0 1 0 -9.8 0zM1115.47 370.45 a4.9 4.9 0 1 0 9.8 0 a4.9 4.9 0 1 0 -9.8 0zM1073.03 345.95 a4.9 4.9 0 1 0 9.8 0 a4.9 4.9 0 1 0 -9.8 0zM1242.78 345.95 a4.9 4.9 0 1 0 9.8 0 a4.9 4.9 0 1 0 -9.8 0zM1285.21 370.45 a4.9 4.9 0 1 0 9.8 0 a4.9 4.9 0 1 0 -9.8 0zM1285.21 419.45 a4.9 4.9 0 1 0 9.8 0 a4.9 4.9 0 1 0 -9.8 0zM1242.78 443.95 a4.9 4.9 0 1 0 9.8 0 a4.9 4.9 0 1 0 -9.8 0zM1200.34 419.45 a4.9 4.9 0 1 0 9.8 0 a4.9 4.9 0 1 0 -9.8 0zM1200.34 370.45 a4.9 4.9 0 1 0 9.8 0 a4.9 4.9 0 1 0 -9.8 0zM1412.52 198.95 a4.9 4.9 0 1 0 9.8 0 a4.9 4.9 0 1 0 -9.8 0zM1454.96 223.45 a4.9 4.9 0 1 0 9.8 0 a4.9 4.9 0 1 0 -9.8 0zM1454.96 272.45 a4.9 4.9 0 1 0 9.8 0 a4.9 4.9 0 1 0 -9.8 0zM1412.52 296.95 a4.9 4.9 0 1 0 9.8 0 a4.9 4.9 0 1 0 -9.8 0zM1370.09 272.45 a4.9 4.9 0 1 0 9.8 0 a4.9 4.9 0 1 0 -9.8 0zM1370.09 223.45 a4.9 4.9 0 1 0 9.8 0 a4.9 4.9 0 1 0 -9.8 0z" fill="rgba(203, 204, 218, 1)"></path></g><defs><mask id="SvgjsMask2700"><rect width="1440" height="560" fill="#ffffff"></rect></mask></defs></svg>