<svg xmlns="http://www.w3.org/2000/svg" version="1.1" xmlns:xlink="http://www.w3.org/1999/xlink" xmlns:svgjs="http://svgjs.dev/svgjs" width="1440" height="560" preserveAspectRatio="none" viewBox="0 0 1440 560"><g mask="url(&quot;#SvgjsMask1048&quot;)" fill="none"><path d="M-110.32 377.49L-110.32 377.49" stroke="#132e65" stroke-width="1.5"></path><path d="M-110.32 377.49L-55.55 550.7" stroke="#132e65" stroke-width="1.5"></path><path d="M-110.32 377.49L89.15 407.82" stroke="#132e65" stroke-width="1.5"></path><path d="M-110.32 377.49L84.08 488.8" stroke="#132e65" stroke-width="1.5"></path><path d="M-110.32 377.49L-97.35 658.42" stroke="#132e65" stroke-width="1.5"></path><path d="M-110.32 377.49L230.04 400.28" stroke="#132e65" stroke-width="1.5"></path><path d="M-55.55 550.7L-55.55 550.7" stroke="#132e65" stroke-width="1.5"></path><path d="M-55.55 550.7L-97.35 658.42" stroke="#132e65" stroke-width="1.5"></path><path d="M-55.55 550.7L84.08 488.8" stroke="#132e65" stroke-width="1.5"></path><path d="M-55.55 550.7L71.27 703.87" stroke="#132e65" stroke-width="1.5"></path><path d="M-55.55 550.7L89.15 407.82" stroke="#132e65" stroke-width="1.5"></path><path d="M-97.35 658.42L-97.35 658.42" stroke="#132e65" stroke-width="1.5"></path><path d="M-97.35 658.42L71.27 703.87" stroke="#132e65" stroke-width="1.5"></path><path d="M-97.35 658.42L84.08 488.8" stroke="#132e65" stroke-width="1.5"></path><path d="M89.15 407.82L89.15 407.82" stroke="#132e65" stroke-width="1.5"></path><path d="M89.15 407.82L84.08 488.8" stroke="#132e65" stroke-width="1.5"></path><path d="M89.15 407.82L230.04 400.28" stroke="#132e65" stroke-width="1.5"></path><path d="M89.15 407.82L258.36 488.57" stroke="#132e65" stroke-width="1.5"></path><path d="M84.08 488.8L84.08 488.8" stroke="#132e65" stroke-width="1.5"></path><path d="M71.27 703.87L71.27 703.87" stroke="#132e65" stroke-width="1.5"></path><path d="M71.27 703.87L222.86 661.46" stroke="#132e65" stroke-width="1.5"></path><path d="M71.27 703.87L84.08 488.8" stroke="#132e65" stroke-width="1.5"></path><path d="M71.27 703.87L258.36 488.57" stroke="#132e65" stroke-width="1.5"></path><path d="M230.04 400.28L230.04 400.28" stroke="#132e65" stroke-width="1.5"></path><path d="M230.04 400.28L258.36 488.57" stroke="#132e65" stroke-width="1.5"></path><path d="M258.36 488.57L258.36 488.57" stroke="#132e65" stroke-width="1.5"></path><path d="M258.36 488.57L376.64 493.61" stroke="#132e65" stroke-width="1.5"></path><path d="M258.36 488.57L373.32 377.26" stroke="#132e65" stroke-width="1.5"></path><path d="M222.86 661.46L222.86 661.46" stroke="#132e65" stroke-width="1.5"></path><path d="M222.86 661.46L376.76 684.41" stroke="#132e65" stroke-width="1.5"></path><path d="M222.86 661.46L258.36 488.57" stroke="#132e65" stroke-width="1.5"></path><path d="M222.86 661.46L84.08 488.8" stroke="#132e65" stroke-width="1.5"></path><path d="M222.86 661.46L376.64 493.61" stroke="#132e65" stroke-width="1.5"></path><path d="M373.32 377.26L373.32 377.26" stroke="#132e65" stroke-width="1.5"></path><path d="M373.32 377.26L376.64 493.61" stroke="#132e65" stroke-width="1.5"></path><path d="M373.32 377.26L492.26 401.78" stroke="#132e65" stroke-width="1.5"></path><path d="M373.32 377.26L230.04 400.28" stroke="#132e65" stroke-width="1.5"></path><path d="M376.64 493.61L376.64 493.61" stroke="#132e65" stroke-width="1.5"></path><path d="M376.76 684.41L376.76 684.41" stroke="#132e65" stroke-width="1.5"></path><path d="M376.76 684.41L504.22 667.33" stroke="#132e65" stroke-width="1.5"></path><path d="M492.26 401.78L492.26 401.78" stroke="#132e65" stroke-width="1.5"></path><path d="M492.26 401.78L516.81 497.75" stroke="#132e65" stroke-width="1.5"></path><path d="M516.81 497.75L516.81 497.75" stroke="#132e65" stroke-width="1.5"></path><path d="M516.81 497.75L376.64 493.61" stroke="#132e65" stroke-width="1.5"></path><path d="M516.81 497.75L673.16 488.42" stroke="#132e65" stroke-width="1.5"></path><path d="M516.81 497.75L504.22 667.33" stroke="#132e65" stroke-width="1.5"></path><path d="M516.81 497.75L373.32 377.26" stroke="#132e65" stroke-width="1.5"></path><path d="M516.81 497.75L660.31 351.05" stroke="#132e65" stroke-width="1.5"></path><path d="M504.22 667.33L504.22 667.33" stroke="#132e65" stroke-width="1.5"></path><path d="M504.22 667.33L704.97 644.69" stroke="#132e65" stroke-width="1.5"></path><path d="M504.22 667.33L376.64 493.61" stroke="#132e65" stroke-width="1.5"></path><path d="M504.22 667.33L673.16 488.42" stroke="#132e65" stroke-width="1.5"></path><path d="M669.12 217.19L669.12 217.19" stroke="#132e65" stroke-width="1.5"></path><path d="M669.12 217.19L660.31 351.05" stroke="#132e65" stroke-width="1.5"></path><path d="M660.31 351.05L660.31 351.05" stroke="#132e65" stroke-width="1.5"></path><path d="M660.31 351.05L673.16 488.42" stroke="#132e65" stroke-width="1.5"></path><path d="M660.31 351.05L492.26 401.78" stroke="#132e65" stroke-width="1.5"></path><path d="M673.16 488.42L673.16 488.42" stroke="#132e65" stroke-width="1.5"></path><path d="M673.16 488.42L815.37 504.86" stroke="#132e65" stroke-width="1.5"></path><path d="M673.16 488.42L704.97 644.69" stroke="#132e65" stroke-width="1.5"></path><path d="M704.97 644.69L704.97 644.69" stroke="#132e65" stroke-width="1.5"></path><path d="M704.97 644.69L840.26 704.71" stroke="#132e65" stroke-width="1.5"></path><path d="M704.97 644.69L815.37 504.86" stroke="#132e65" stroke-width="1.5"></path><path d="M809.6 219.93L809.6 219.93" stroke="#132e65" stroke-width="1.5"></path><path d="M809.6 219.93L848.98 341.22" stroke="#132e65" stroke-width="1.5"></path><path d="M848.98 341.22L848.98 341.22" stroke="#132e65" stroke-width="1.5"></path><path d="M848.98 341.22L815.37 504.86" stroke="#132e65" stroke-width="1.5"></path><path d="M848.98 341.22L989.13 215.13" stroke="#132e65" stroke-width="1.5"></path><path d="M848.98 341.22L660.31 351.05" stroke="#132e65" stroke-width="1.5"></path><path d="M848.98 341.22L943.95 536.19" stroke="#132e65" stroke-width="1.5"></path><path d="M848.98 341.22L669.12 217.19" stroke="#132e65" stroke-width="1.5"></path><path d="M815.37 504.86L815.37 504.86" stroke="#132e65" stroke-width="1.5"></path><path d="M815.37 504.86L943.95 536.19" stroke="#132e65" stroke-width="1.5"></path><path d="M815.37 504.86L840.26 704.71" stroke="#132e65" stroke-width="1.5"></path><path d="M815.37 504.86L950.36 668.21" stroke="#132e65" stroke-width="1.5"></path><path d="M840.26 704.71L840.26 704.71" stroke="#132e65" stroke-width="1.5"></path><path d="M840.26 704.71L950.36 668.21" stroke="#132e65" stroke-width="1.5"></path><path d="M840.26 704.71L943.95 536.19" stroke="#132e65" stroke-width="1.5"></path><path d="M840.26 704.71L673.16 488.42" stroke="#132e65" stroke-width="1.5"></path><path d="M996.78 -81.21L996.78 -81.21" stroke="#132e65" stroke-width="1.5"></path><path d="M996.78 -81.21L1118.95 -74.28" stroke="#132e65" stroke-width="1.5"></path><path d="M996.78 -81.21L945.45 112.29" stroke="#132e65" stroke-width="1.5"></path><path d="M996.78 -81.21L1146.95 85.64" stroke="#132e65" stroke-width="1.5"></path><path d="M996.78 -81.21L989.13 215.13" stroke="#132e65" stroke-width="1.5"></path><path d="M996.78 -81.21L1294.47 103" stroke="#132e65" stroke-width="1.5"></path><path d="M945.45 112.29L945.45 112.29" stroke="#132e65" stroke-width="1.5"></path><path d="M945.45 112.29L989.13 215.13" stroke="#132e65" stroke-width="1.5"></path><path d="M945.45 112.29L809.6 219.93" stroke="#132e65" stroke-width="1.5"></path><path d="M945.45 112.29L1146.95 85.64" stroke="#132e65" stroke-width="1.5"></path><path d="M945.45 112.29L1141.22 243.28" stroke="#132e65" stroke-width="1.5"></path><path d="M945.45 112.29L848.98 341.22" stroke="#132e65" stroke-width="1.5"></path><path d="M989.13 215.13L989.13 215.13" stroke="#132e65" stroke-width="1.5"></path><path d="M989.13 215.13L1141.22 243.28" stroke="#132e65" stroke-width="1.5"></path><path d="M943.95 536.19L943.95 536.19" stroke="#132e65" stroke-width="1.5"></path><path d="M943.95 536.19L950.36 668.21" stroke="#132e65" stroke-width="1.5"></path><path d="M943.95 536.19L1129.03 523.29" stroke="#132e65" stroke-width="1.5"></path><path d="M950.36 668.21L950.36 668.21" stroke="#132e65" stroke-width="1.5"></path><path d="M1118.95 -74.28L1118.95 -74.28" stroke="#132e65" stroke-width="1.5"></path><path d="M1118.95 -74.28L1146.95 85.64" stroke="#132e65" stroke-width="1.5"></path><path d="M1146.95 85.64L1146.95 85.64" stroke="#132e65" stroke-width="1.5"></path><path d="M1146.95 85.64L1294.47 103" stroke="#132e65" stroke-width="1.5"></path><path d="M1146.95 85.64L1141.22 243.28" stroke="#132e65" stroke-width="1.5"></path><path d="M1141.22 243.28L1141.22 243.28" stroke="#132e65" stroke-width="1.5"></path><path d="M1141.22 243.28L1243.15 227.39" stroke="#132e65" stroke-width="1.5"></path><path d="M1141.22 243.28L1100.78 347.15" stroke="#132e65" stroke-width="1.5"></path><path d="M1100.78 347.15L1100.78 347.15" stroke="#132e65" stroke-width="1.5"></path><path d="M1100.78 347.15L1263.03 385.14" stroke="#132e65" stroke-width="1.5"></path><path d="M1100.78 347.15L989.13 215.13" stroke="#132e65" stroke-width="1.5"></path><path d="M1129.03 523.29L1129.03 523.29" stroke="#132e65" stroke-width="1.5"></path><path d="M1129.03 523.29L1243.96 535.95" stroke="#132e65" stroke-width="1.5"></path><path d="M1129.03 523.29L1135.95 665.7" stroke="#132e65" stroke-width="1.5"></path><path d="M1129.03 523.29L1100.78 347.15" stroke="#132e65" stroke-width="1.5"></path><path d="M1135.95 665.7L1135.95 665.7" stroke="#132e65" stroke-width="1.5"></path><path d="M1135.95 665.7L1286.1 689.98" stroke="#132e65" stroke-width="1.5"></path><path d="M1294.47 103L1294.47 103" stroke="#132e65" stroke-width="1.5"></path><path d="M1294.47 103L1243.15 227.39" stroke="#132e65" stroke-width="1.5"></path><path d="M1294.47 103L1461.74 104.17" stroke="#132e65" stroke-width="1.5"></path><path d="M1294.47 103L1141.22 243.28" stroke="#132e65" stroke-width="1.5"></path><path d="M1294.47 103L1438.87 -70.93" stroke="#132e65" stroke-width="1.5"></path><path d="M1243.15 227.39L1243.15 227.39" stroke="#132e65" stroke-width="1.5"></path><path d="M1243.15 227.39L1263.03 385.14" stroke="#132e65" stroke-width="1.5"></path><path d="M1243.15 227.39L1146.95 85.64" stroke="#132e65" stroke-width="1.5"></path><path d="M1243.15 227.39L1100.78 347.15" stroke="#132e65" stroke-width="1.5"></path><path d="M1243.15 227.39L1424.01 398.83" stroke="#132e65" stroke-width="1.5"></path><path d="M1263.03 385.14L1263.03 385.14" stroke="#132e65" stroke-width="1.5"></path><path d="M1263.03 385.14L1243.96 535.95" stroke="#132e65" stroke-width="1.5"></path><path d="M1263.03 385.14L1424.01 398.83" stroke="#132e65" stroke-width="1.5"></path><path d="M1243.96 535.95L1243.96 535.95" stroke="#132e65" stroke-width="1.5"></path><path d="M1243.96 535.95L1286.1 689.98" stroke="#132e65" stroke-width="1.5"></path><path d="M1243.96 535.95L1135.95 665.7" stroke="#132e65" stroke-width="1.5"></path><path d="M1243.96 535.95L1424.01 398.83" stroke="#132e65" stroke-width="1.5"></path><path d="M1243.96 535.95L1100.78 347.15" stroke="#132e65" stroke-width="1.5"></path><path d="M1286.1 689.98L1286.1 689.98" stroke="#132e65" stroke-width="1.5"></path><path d="M1286.1 689.98L1447.63 711.5" stroke="#132e65" stroke-width="1.5"></path><path d="M1438.87 -70.93L1438.87 -70.93" stroke="#132e65" stroke-width="1.5"></path><path d="M1438.87 -70.93L1562.78 -75.71" stroke="#132e65" stroke-width="1.5"></path><path d="M1438.87 -70.93L1461.74 104.17" stroke="#132e65" stroke-width="1.5"></path><path d="M1438.87 -70.93L1598.47 88.89" stroke="#132e65" stroke-width="1.5"></path><path d="M1438.87 -70.93L1118.95 -74.28" stroke="#132e65" stroke-width="1.5"></path><path d="M1438.87 -70.93L1567.77 226.37" stroke="#132e65" stroke-width="1.5"></path><path d="M1461.74 104.17L1461.74 104.17" stroke="#132e65" stroke-width="1.5"></path><path d="M1461.74 104.17L1598.47 88.89" stroke="#132e65" stroke-width="1.5"></path><path d="M1461.74 104.17L1567.77 226.37" stroke="#132e65" stroke-width="1.5"></path><path d="M1424.01 398.83L1424.01 398.83" stroke="#132e65" stroke-width="1.5"></path><path d="M1424.01 398.83L1604.85 367.33" stroke="#132e65" stroke-width="1.5"></path><path d="M1424.01 398.83L1586.09 488.4" stroke="#132e65" stroke-width="1.5"></path><path d="M1424.01 398.83L1567.77 226.37" stroke="#132e65" stroke-width="1.5"></path><path d="M1447.63 711.5L1447.63 711.5" stroke="#132e65" stroke-width="1.5"></path><path d="M1447.63 711.5L1573.98 687.92" stroke="#132e65" stroke-width="1.5"></path><path d="M1447.63 711.5L1586.09 488.4" stroke="#132e65" stroke-width="1.5"></path><path d="M1447.63 711.5L1243.96 535.95" stroke="#132e65" stroke-width="1.5"></path><path d="M1447.63 711.5L1424.01 398.83" stroke="#132e65" stroke-width="1.5"></path><path d="M1562.78 -75.71L1562.78 -75.71" stroke="#132e65" stroke-width="1.5"></path><path d="M1562.78 -75.71L1598.47 88.89" stroke="#132e65" stroke-width="1.5"></path><path d="M1598.47 88.89L1598.47 88.89" stroke="#132e65" stroke-width="1.5"></path><path d="M1598.47 88.89L1567.77 226.37" stroke="#132e65" stroke-width="1.5"></path><path d="M1567.77 226.37L1567.77 226.37" stroke="#132e65" stroke-width="1.5"></path><path d="M1567.77 226.37L1604.85 367.33" stroke="#132e65" stroke-width="1.5"></path><path d="M1604.85 367.33L1604.85 367.33" stroke="#132e65" stroke-width="1.5"></path><path d="M1604.85 367.33L1586.09 488.4" stroke="#132e65" stroke-width="1.5"></path><path d="M1604.85 367.33L1598.47 88.89" stroke="#132e65" stroke-width="1.5"></path><path d="M1586.09 488.4L1586.09 488.4" stroke="#132e65" stroke-width="1.5"></path><path d="M1573.98 687.92L1573.98 687.92" stroke="#132e65" stroke-width="1.5"></path><circle r="5" cx="-110.32" cy="377.49" fill="#132e65"></circle><circle r="5" cx="-55.55" cy="550.7" fill="#132e65"></circle><circle r="5" cx="-97.35" cy="658.42" fill="#132e65"></circle><circle r="5" cx="89.15" cy="407.82" fill="#132e65"></circle><circle r="5" cx="84.08" cy="488.8" fill="#132e65"></circle><circle r="5" cx="71.27" cy="703.87" fill="#132e65"></circle><circle r="5" cx="230.04" cy="400.28" fill="#132e65"></circle><circle r="5" cx="258.36" cy="488.57" fill="#132e65"></circle><circle r="5" cx="222.86" cy="661.46" fill="#132e65"></circle><circle r="5" cx="373.32" cy="377.26" fill="#132e65"></circle><circle r="5" cx="376.64" cy="493.61" fill="#132e65"></circle><circle r="5" cx="376.76" cy="684.41" fill="#132e65"></circle><circle r="5" cx="492.26" cy="401.78" fill="#132e65"></circle><circle r="5" cx="516.81" cy="497.75" fill="#132e65"></circle><circle r="5" cx="504.22" cy="667.33" fill="#132e65"></circle><circle r="5" cx="669.12" cy="217.19" fill="#132e65"></circle><circle r="5" cx="660.31" cy="351.05" fill="#132e65"></circle><circle r="5" cx="673.16" cy="488.42" fill="#132e65"></circle><circle r="5" cx="704.97" cy="644.69" fill="#132e65"></circle><circle r="5" cx="809.6" cy="219.93" fill="#132e65"></circle><circle r="5" cx="848.98" cy="341.22" fill="#132e65"></circle><circle r="5" cx="815.37" cy="504.86" fill="#132e65"></circle><circle r="5" cx="840.26" cy="704.71" fill="#132e65"></circle><circle r="5" cx="996.78" cy="-81.21" fill="#132e65"></circle><circle r="5" cx="945.45" cy="112.29" fill="#132e65"></circle><circle r="5" cx="989.13" cy="215.13" fill="#132e65"></circle><circle r="5" cx="943.95" cy="536.19" fill="#132e65"></circle><circle r="5" cx="950.36" cy="668.21" fill="#132e65"></circle><circle r="5" cx="1118.95" cy="-74.28" fill="#132e65"></circle><circle r="5" cx="1146.95" cy="85.64" fill="#132e65"></circle><circle r="5" cx="1141.22" cy="243.28" fill="#132e65"></circle><circle r="5" cx="1100.78" cy="347.15" fill="#132e65"></circle><circle r="5" cx="1129.03" cy="523.29" fill="#132e65"></circle><circle r="5" cx="1135.95" cy="665.7" fill="#132e65"></circle><circle r="5" cx="1294.47" cy="103" fill="#132e65"></circle><circle r="5" cx="1243.15" cy="227.39" fill="#132e65"></circle><circle r="5" cx="1263.03" cy="385.14" fill="#132e65"></circle><circle r="5" cx="1243.96" cy="535.95" fill="#132e65"></circle><circle r="5" cx="1286.1" cy="689.98" fill="#132e65"></circle><circle r="5" cx="1438.87" cy="-70.93" fill="#132e65"></circle><circle r="5" cx="1461.74" cy="104.17" fill="#132e65"></circle><circle r="5" cx="1424.01" cy="398.83" fill="#132e65"></circle><circle r="5" cx="1447.63" cy="711.5" fill="#132e65"></circle><circle r="5" cx="1562.78" cy="-75.71" fill="#132e65"></circle><circle r="5" cx="1598.47" cy="88.89" fill="#132e65"></circle><circle r="5" cx="1567.77" cy="226.37" fill="#132e65"></circle><circle r="5" cx="1604.85" cy="367.33" fill="#132e65"></circle><circle r="5" cx="1586.09" cy="488.4" fill="#132e65"></circle><circle r="5" cx="1573.98" cy="687.92" fill="#132e65"></circle><path d="M-76.37 498.86L-76.37 498.86" stroke="hsl(228.5, 77.2%, 51.5%)" stroke-width="1.5"></path><path d="M-76.37 498.86L57.38 550.32" stroke="hsl(228.5, 77.2%, 51.5%)" stroke-width="1.5"></path><path d="M-76.37 498.86L-40.8 696.45" stroke="hsl(228.5, 77.2%, 51.5%)" stroke-width="1.5"></path><path d="M-76.37 498.86L260.95 528.56" stroke="hsl(228.5, 77.2%, 51.5%)" stroke-width="1.5"></path><path d="M551.87 409.79L551.87 409.79" stroke="hsl(228.5, 77.2%, 51.5%)" stroke-width="1.5"></path><path d="M551.87 409.79L496.93 555.33" stroke="hsl(228.5, 77.2%, 51.5%)" stroke-width="1.5"></path><path d="M551.87 409.79L667.13 554.88" stroke="hsl(228.5, 77.2%, 51.5%)" stroke-width="1.5"></path><path d="M551.87 409.79L365.98 539.18" stroke="hsl(228.5, 77.2%, 51.5%)" stroke-width="1.5"></path><path d="M551.87 409.79L827.7 367.62" stroke="hsl(228.5, 77.2%, 51.5%)" stroke-width="1.5"></path><path d="M551.87 409.79L817.04 515.42" stroke="hsl(228.5, 77.2%, 51.5%)" stroke-width="1.5"></path><path d="M496.93 555.33L496.93 555.33" stroke="hsl(228.5, 77.2%, 51.5%)" stroke-width="1.5"></path><path d="M496.93 555.33L365.98 539.18" stroke="hsl(228.5, 77.2%, 51.5%)" stroke-width="1.5"></path><path d="M496.93 555.33L513.38 703.7" stroke="hsl(228.5, 77.2%, 51.5%)" stroke-width="1.5"></path><path d="M496.93 555.33L667.13 554.88" stroke="hsl(228.5, 77.2%, 51.5%)" stroke-width="1.5"></path><path d="M817.04 515.42L817.04 515.42" stroke="hsl(228.5, 77.2%, 51.5%)" stroke-width="1.5"></path><path d="M817.04 515.42L827.7 367.62" stroke="hsl(228.5, 77.2%, 51.5%)" stroke-width="1.5"></path><path d="M817.04 515.42L667.13 554.88" stroke="hsl(228.5, 77.2%, 51.5%)" stroke-width="1.5"></path><path d="M817.04 515.42L940.52 640.07" stroke="hsl(228.5, 77.2%, 51.5%)" stroke-width="1.5"></path><path d="M817.04 515.42L702.9 655.98" stroke="hsl(228.5, 77.2%, 51.5%)" stroke-width="1.5"></path><path d="M1249.9 -96.16L1249.9 -96.16" stroke="hsl(228.5, 77.2%, 51.5%)" stroke-width="1.5"></path><path d="M1249.9 -96.16L1459.39 -79.02" stroke="hsl(228.5, 77.2%, 51.5%)" stroke-width="1.5"></path><path d="M1249.9 -96.16L1421.18 41.76" stroke="hsl(228.5, 77.2%, 51.5%)" stroke-width="1.5"></path><path d="M1249.9 -96.16L1128.41 93.7" stroke="hsl(228.5, 77.2%, 51.5%)" stroke-width="1.5"></path><path d="M1249.9 -96.16L1304.12 231.12" stroke="hsl(228.5, 77.2%, 51.5%)" stroke-width="1.5"></path><path d="M1255.19 348.01L1255.19 348.01" stroke="hsl(228.5, 77.2%, 51.5%)" stroke-width="1.5"></path><path d="M1255.19 348.01L1162.42 394.81" stroke="hsl(228.5, 77.2%, 51.5%)" stroke-width="1.5"></path><path d="M1255.19 348.01L1304.12 231.12" stroke="hsl(228.5, 77.2%, 51.5%)" stroke-width="1.5"></path><path d="M1255.19 348.01L1155.24 239.26" stroke="hsl(228.5, 77.2%, 51.5%)" stroke-width="1.5"></path><path d="M1421.18 41.76L1421.18 41.76" stroke="hsl(228.5, 77.2%, 51.5%)" stroke-width="1.5"></path><path d="M1421.18 41.76L1459.39 -79.02" stroke="hsl(228.5, 77.2%, 51.5%)" stroke-width="1.5"></path><path d="M1421.18 41.76L1592.39 110.21" stroke="hsl(228.5, 77.2%, 51.5%)" stroke-width="1.5"></path><path d="M1421.18 41.76L1601.01 -46.39" stroke="hsl(228.5, 77.2%, 51.5%)" stroke-width="1.5"></path><path d="M1415.78 373.97L1415.78 373.97" stroke="hsl(228.5, 77.2%, 51.5%)" stroke-width="1.5"></path><path d="M1415.78 373.97L1449.97 247.08" stroke="hsl(228.5, 77.2%, 51.5%)" stroke-width="1.5"></path><path d="M1415.78 373.97L1388.73 514.29" stroke="hsl(228.5, 77.2%, 51.5%)" stroke-width="1.5"></path><path d="M1592.39 110.21L1592.39 110.21" stroke="hsl(228.5, 77.2%, 51.5%)" stroke-width="1.5"></path><path d="M1592.39 110.21L1601.01 -46.39" stroke="hsl(228.5, 77.2%, 51.5%)" stroke-width="1.5"></path><path d="M1592.39 110.21L1541.85 262.33" stroke="hsl(228.5, 77.2%, 51.5%)" stroke-width="1.5"></path><path d="M1606.72 515.66L1606.72 515.66" stroke="hsl(228.5, 77.2%, 51.5%)" stroke-width="1.5"></path><path d="M1606.72 515.66L1573.28 639.3" stroke="hsl(228.5, 77.2%, 51.5%)" stroke-width="1.5"></path><path d="M1606.72 515.66L1588.95 355.2" stroke="hsl(228.5, 77.2%, 51.5%)" stroke-width="1.5"></path><path d="M1606.72 515.66L1456.4 656.24" stroke="hsl(228.5, 77.2%, 51.5%)" stroke-width="1.5"></path><path d="M1573.28 639.3L1573.28 639.3" stroke="hsl(228.5, 77.2%, 51.5%)" stroke-width="1.5"></path><path d="M1573.28 639.3L1456.4 656.24" stroke="hsl(228.5, 77.2%, 51.5%)" stroke-width="1.5"></path><path d="M1573.28 639.3L1388.73 514.29" stroke="hsl(228.5, 77.2%, 51.5%)" stroke-width="1.5"></path><path d="M-40.8 696.45L-40.8 696.45" stroke="hsl(228.5, 77.2%, 51.5%)" stroke-width="1.5"></path><path d="M-40.8 696.45L57.38 550.32" stroke="hsl(228.5, 77.2%, 51.5%)" stroke-width="1.5"></path><path d="M-40.8 696.45L215.75 686.92" stroke="hsl(228.5, 77.2%, 51.5%)" stroke-width="1.5"></path><path d="M-40.8 696.45L260.95 528.56" stroke="hsl(228.5, 77.2%, 51.5%)" stroke-width="1.5"></path><path d="M-40.8 696.45L347.96 709.1" stroke="hsl(228.5, 77.2%, 51.5%)" stroke-width="1.5"></path><path d="M-40.8 696.45L365.98 539.18" stroke="hsl(228.5, 77.2%, 51.5%)" stroke-width="1.5"></path><path d="M57.38 550.32L57.38 550.32" stroke="hsl(228.5, 77.2%, 51.5%)" stroke-width="1.5"></path><path d="M260.95 528.56L260.95 528.56" stroke="hsl(228.5, 77.2%, 51.5%)" stroke-width="1.5"></path><path d="M260.95 528.56L365.98 539.18" stroke="hsl(228.5, 77.2%, 51.5%)" stroke-width="1.5"></path><path d="M260.95 528.56L215.75 686.92" stroke="hsl(228.5, 77.2%, 51.5%)" stroke-width="1.5"></path><path d="M260.95 528.56L347.96 709.1" stroke="hsl(228.5, 77.2%, 51.5%)" stroke-width="1.5"></path><path d="M260.95 528.56L57.38 550.32" stroke="hsl(228.5, 77.2%, 51.5%)" stroke-width="1.5"></path><path d="M260.95 528.56L496.93 555.33" stroke="hsl(228.5, 77.2%, 51.5%)" stroke-width="1.5"></path><path d="M260.95 528.56L513.38 703.7" stroke="hsl(228.5, 77.2%, 51.5%)" stroke-width="1.5"></path><path d="M215.75 686.92L215.75 686.92" stroke="hsl(228.5, 77.2%, 51.5%)" stroke-width="1.5"></path><path d="M215.75 686.92L347.96 709.1" stroke="hsl(228.5, 77.2%, 51.5%)" stroke-width="1.5"></path><path d="M215.75 686.92L57.38 550.32" stroke="hsl(228.5, 77.2%, 51.5%)" stroke-width="1.5"></path><path d="M215.75 686.92L365.98 539.18" stroke="hsl(228.5, 77.2%, 51.5%)" stroke-width="1.5"></path><path d="M365.98 539.18L365.98 539.18" stroke="hsl(228.5, 77.2%, 51.5%)" stroke-width="1.5"></path><path d="M365.98 539.18L347.96 709.1" stroke="hsl(228.5, 77.2%, 51.5%)" stroke-width="1.5"></path><path d="M347.96 709.1L347.96 709.1" stroke="hsl(228.5, 77.2%, 51.5%)" stroke-width="1.5"></path><path d="M347.96 709.1L513.38 703.7" stroke="hsl(228.5, 77.2%, 51.5%)" stroke-width="1.5"></path><path d="M513.38 703.7L513.38 703.7" stroke="hsl(228.5, 77.2%, 51.5%)" stroke-width="1.5"></path><path d="M667.13 554.88L667.13 554.88" stroke="hsl(228.5, 77.2%, 51.5%)" stroke-width="1.5"></path><path d="M667.13 554.88L702.9 655.98" stroke="hsl(228.5, 77.2%, 51.5%)" stroke-width="1.5"></path><path d="M702.9 655.98L702.9 655.98" stroke="hsl(228.5, 77.2%, 51.5%)" stroke-width="1.5"></path><path d="M702.9 655.98L800.78 703.65" stroke="hsl(228.5, 77.2%, 51.5%)" stroke-width="1.5"></path><path d="M702.9 655.98L513.38 703.7" stroke="hsl(228.5, 77.2%, 51.5%)" stroke-width="1.5"></path><path d="M702.9 655.98L496.93 555.33" stroke="hsl(228.5, 77.2%, 51.5%)" stroke-width="1.5"></path><path d="M827.7 367.62L827.7 367.62" stroke="hsl(228.5, 77.2%, 51.5%)" stroke-width="1.5"></path><path d="M827.7 367.62L989.98 356.66" stroke="hsl(228.5, 77.2%, 51.5%)" stroke-width="1.5"></path><path d="M827.7 367.62L980.26 251.25" stroke="hsl(228.5, 77.2%, 51.5%)" stroke-width="1.5"></path><path d="M827.7 367.62L1002.22 498.5" stroke="hsl(228.5, 77.2%, 51.5%)" stroke-width="1.5"></path><path d="M827.7 367.62L667.13 554.88" stroke="hsl(228.5, 77.2%, 51.5%)" stroke-width="1.5"></path><path d="M800.78 703.65L800.78 703.65" stroke="hsl(228.5, 77.2%, 51.5%)" stroke-width="1.5"></path><path d="M800.78 703.65L940.52 640.07" stroke="hsl(228.5, 77.2%, 51.5%)" stroke-width="1.5"></path><path d="M800.78 703.65L817.04 515.42" stroke="hsl(228.5, 77.2%, 51.5%)" stroke-width="1.5"></path><path d="M800.78 703.65L667.13 554.88" stroke="hsl(228.5, 77.2%, 51.5%)" stroke-width="1.5"></path><path d="M800.78 703.65L513.38 703.7" stroke="hsl(228.5, 77.2%, 51.5%)" stroke-width="1.5"></path><path d="M980.26 251.25L980.26 251.25" stroke="hsl(228.5, 77.2%, 51.5%)" stroke-width="1.5"></path><path d="M980.26 251.25L989.98 356.66" stroke="hsl(228.5, 77.2%, 51.5%)" stroke-width="1.5"></path><path d="M980.26 251.25L1155.24 239.26" stroke="hsl(228.5, 77.2%, 51.5%)" stroke-width="1.5"></path><path d="M980.26 251.25L1128.41 93.7" stroke="hsl(228.5, 77.2%, 51.5%)" stroke-width="1.5"></path><path d="M989.98 356.66L989.98 356.66" stroke="hsl(228.5, 77.2%, 51.5%)" stroke-width="1.5"></path><path d="M989.98 356.66L1002.22 498.5" stroke="hsl(228.5, 77.2%, 51.5%)" stroke-width="1.5"></path><path d="M1002.22 498.5L1002.22 498.5" stroke="hsl(228.5, 77.2%, 51.5%)" stroke-width="1.5"></path><path d="M1002.22 498.5L1090.6 506.45" stroke="hsl(228.5, 77.2%, 51.5%)" stroke-width="1.5"></path><path d="M1002.22 498.5L940.52 640.07" stroke="hsl(228.5, 77.2%, 51.5%)" stroke-width="1.5"></path><path d="M940.52 640.07L940.52 640.07" stroke="hsl(228.5, 77.2%, 51.5%)" stroke-width="1.5"></path><path d="M940.52 640.07L1090.6 506.45" stroke="hsl(228.5, 77.2%, 51.5%)" stroke-width="1.5"></path><path d="M1128.41 93.7L1128.41 93.7" stroke="hsl(228.5, 77.2%, 51.5%)" stroke-width="1.5"></path><path d="M1128.41 93.7L1155.24 239.26" stroke="hsl(228.5, 77.2%, 51.5%)" stroke-width="1.5"></path><path d="M1155.24 239.26L1155.24 239.26" stroke="hsl(228.5, 77.2%, 51.5%)" stroke-width="1.5"></path><path d="M1162.42 394.81L1162.42 394.81" stroke="hsl(228.5, 77.2%, 51.5%)" stroke-width="1.5"></path><path d="M1162.42 394.81L1090.6 506.45" stroke="hsl(228.5, 77.2%, 51.5%)" stroke-width="1.5"></path><path d="M1090.6 506.45L1090.6 506.45" stroke="hsl(228.5, 77.2%, 51.5%)" stroke-width="1.5"></path><path d="M1090.6 506.45L1242.11 519.69" stroke="hsl(228.5, 77.2%, 51.5%)" stroke-width="1.5"></path><path d="M1090.6 506.45L1156.15 655.38" stroke="hsl(228.5, 77.2%, 51.5%)" stroke-width="1.5"></path><path d="M1090.6 506.45L989.98 356.66" stroke="hsl(228.5, 77.2%, 51.5%)" stroke-width="1.5"></path><path d="M1156.15 655.38L1156.15 655.38" stroke="hsl(228.5, 77.2%, 51.5%)" stroke-width="1.5"></path><path d="M1156.15 655.38L1259.8 681.98" stroke="hsl(228.5, 77.2%, 51.5%)" stroke-width="1.5"></path><path d="M1304.12 231.12L1304.12 231.12" stroke="hsl(228.5, 77.2%, 51.5%)" stroke-width="1.5"></path><path d="M1304.12 231.12L1449.97 247.08" stroke="hsl(228.5, 77.2%, 51.5%)" stroke-width="1.5"></path><path d="M1304.12 231.12L1155.24 239.26" stroke="hsl(228.5, 77.2%, 51.5%)" stroke-width="1.5"></path><path d="M1304.12 231.12L1415.78 373.97" stroke="hsl(228.5, 77.2%, 51.5%)" stroke-width="1.5"></path><path d="M1242.11 519.69L1242.11 519.69" stroke="hsl(228.5, 77.2%, 51.5%)" stroke-width="1.5"></path><path d="M1242.11 519.69L1388.73 514.29" stroke="hsl(228.5, 77.2%, 51.5%)" stroke-width="1.5"></path><path d="M1242.11 519.69L1162.42 394.81" stroke="hsl(228.5, 77.2%, 51.5%)" stroke-width="1.5"></path><path d="M1242.11 519.69L1156.15 655.38" stroke="hsl(228.5, 77.2%, 51.5%)" stroke-width="1.5"></path><path d="M1242.11 519.69L1259.8 681.98" stroke="hsl(228.5, 77.2%, 51.5%)" stroke-width="1.5"></path><path d="M1242.11 519.69L1255.19 348.01" stroke="hsl(228.5, 77.2%, 51.5%)" stroke-width="1.5"></path><path d="M1259.8 681.98L1259.8 681.98" stroke="hsl(228.5, 77.2%, 51.5%)" stroke-width="1.5"></path><path d="M1259.8 681.98L1456.4 656.24" stroke="hsl(228.5, 77.2%, 51.5%)" stroke-width="1.5"></path><path d="M1259.8 681.98L1388.73 514.29" stroke="hsl(228.5, 77.2%, 51.5%)" stroke-width="1.5"></path><path d="M1259.8 681.98L1090.6 506.45" stroke="hsl(228.5, 77.2%, 51.5%)" stroke-width="1.5"></path><path d="M1459.39 -79.02L1459.39 -79.02" stroke="hsl(228.5, 77.2%, 51.5%)" stroke-width="1.5"></path><path d="M1449.97 247.08L1449.97 247.08" stroke="hsl(228.5, 77.2%, 51.5%)" stroke-width="1.5"></path><path d="M1449.97 247.08L1541.85 262.33" stroke="hsl(228.5, 77.2%, 51.5%)" stroke-width="1.5"></path><path d="M1388.73 514.29L1388.73 514.29" stroke="hsl(228.5, 77.2%, 51.5%)" stroke-width="1.5"></path><path d="M1388.73 514.29L1456.4 656.24" stroke="hsl(228.5, 77.2%, 51.5%)" stroke-width="1.5"></path><path d="M1388.73 514.29L1255.19 348.01" stroke="hsl(228.5, 77.2%, 51.5%)" stroke-width="1.5"></path><path d="M1456.4 656.24L1456.4 656.24" stroke="hsl(228.5, 77.2%, 51.5%)" stroke-width="1.5"></path><path d="M1601.01 -46.39L1601.01 -46.39" stroke="hsl(228.5, 77.2%, 51.5%)" stroke-width="1.5"></path><path d="M1601.01 -46.39L1459.39 -79.02" stroke="hsl(228.5, 77.2%, 51.5%)" stroke-width="1.5"></path><path d="M1601.01 -46.39L1541.85 262.33" stroke="hsl(228.5, 77.2%, 51.5%)" stroke-width="1.5"></path><path d="M1601.01 -46.39L1449.97 247.08" stroke="hsl(228.5, 77.2%, 51.5%)" stroke-width="1.5"></path><path d="M1541.85 262.33L1541.85 262.33" stroke="hsl(228.5, 77.2%, 51.5%)" stroke-width="1.5"></path><path d="M1541.85 262.33L1588.95 355.2" stroke="hsl(228.5, 77.2%, 51.5%)" stroke-width="1.5"></path><path d="M1541.85 262.33L1415.78 373.97" stroke="hsl(228.5, 77.2%, 51.5%)" stroke-width="1.5"></path><path d="M1541.85 262.33L1304.12 231.12" stroke="hsl(228.5, 77.2%, 51.5%)" stroke-width="1.5"></path><path d="M1541.85 262.33L1421.18 41.76" stroke="hsl(228.5, 77.2%, 51.5%)" stroke-width="1.5"></path><path d="M1588.95 355.2L1588.95 355.2" stroke="hsl(228.5, 77.2%, 51.5%)" stroke-width="1.5"></path><path d="M1588.95 355.2L1415.78 373.97" stroke="hsl(228.5, 77.2%, 51.5%)" stroke-width="1.5"></path><path d="M1588.95 355.2L1449.97 247.08" stroke="hsl(228.5, 77.2%, 51.5%)" stroke-width="1.5"></path><path d="M1588.95 355.2L1592.39 110.21" stroke="hsl(228.5, 77.2%, 51.5%)" stroke-width="1.5"></path><circle r="25" cx="-76.37" cy="498.86" fill="url(&quot;#SvgjsRadialGradient1049&quot;)"></circle><circle r="25" cx="551.87" cy="409.79" fill="url(&quot;#SvgjsRadialGradient1049&quot;)"></circle><circle r="25" cx="496.93" cy="555.33" fill="url(&quot;#SvgjsRadialGradient1049&quot;)"></circle><circle r="25" cx="817.04" cy="515.42" fill="url(&quot;#SvgjsRadialGradient1049&quot;)"></circle><circle r="25" cx="1249.9" cy="-96.16" fill="url(&quot;#SvgjsRadialGradient1049&quot;)"></circle><circle r="25" cx="1255.19" cy="348.01" fill="url(&quot;#SvgjsRadialGradient1049&quot;)"></circle><circle r="25" cx="1421.18" cy="41.76" fill="url(&quot;#SvgjsRadialGradient1049&quot;)"></circle><circle r="25" cx="1415.78" cy="373.97" fill="url(&quot;#SvgjsRadialGradient1049&quot;)"></circle><circle r="25" cx="1592.39" cy="110.21" fill="url(&quot;#SvgjsRadialGradient1049&quot;)"></circle><circle r="25" cx="1606.72" cy="515.66" fill="url(&quot;#SvgjsRadialGradient1049&quot;)"></circle><circle r="25" cx="1573.28" cy="639.3" fill="url(&quot;#SvgjsRadialGradient1049&quot;)"></circle><circle r="5" cx="-40.8" cy="696.45" fill="#8b9ad9"></circle><circle r="5" cx="57.38" cy="550.32" fill="#8b9ad9"></circle><circle r="5" cx="260.95" cy="528.56" fill="#8b9ad9"></circle><circle r="5" cx="215.75" cy="686.92" fill="#8b9ad9"></circle><circle r="5" cx="365.98" cy="539.18" fill="#8b9ad9"></circle><circle r="5" cx="347.96" cy="709.1" fill="#8b9ad9"></circle><circle r="5" cx="513.38" cy="703.7" fill="#8b9ad9"></circle><circle r="5" cx="667.13" cy="554.88" fill="#8b9ad9"></circle><circle r="5" cx="702.9" cy="655.98" fill="#8b9ad9"></circle><circle r="5" cx="827.7" cy="367.62" fill="#8b9ad9"></circle><circle r="5" cx="800.78" cy="703.65" fill="#8b9ad9"></circle><circle r="5" cx="980.26" cy="251.25" fill="#8b9ad9"></circle><circle r="5" cx="989.98" cy="356.66" fill="#8b9ad9"></circle><circle r="5" cx="1002.22" cy="498.5" fill="#8b9ad9"></circle><circle r="5" cx="940.52" cy="640.07" fill="#8b9ad9"></circle><circle r="5" cx="1128.41" cy="93.7" fill="#8b9ad9"></circle><circle r="5" cx="1155.24" cy="239.26" fill="#8b9ad9"></circle><circle r="5" cx="1162.42" cy="394.81" fill="#8b9ad9"></circle><circle r="5" cx="1090.6" cy="506.45" fill="#8b9ad9"></circle><circle r="5" cx="1156.15" cy="655.38" fill="#8b9ad9"></circle><circle r="5" cx="1304.12" cy="231.12" fill="#8b9ad9"></circle><circle r="5" cx="1242.11" cy="519.69" fill="#8b9ad9"></circle><circle r="5" cx="1259.8" cy="681.98" fill="#8b9ad9"></circle><circle r="5" cx="1459.39" cy="-79.02" fill="#8b9ad9"></circle><circle r="5" cx="1449.97" cy="247.08" fill="#8b9ad9"></circle><circle r="5" cx="1388.73" cy="514.29" fill="#8b9ad9"></circle><circle r="5" cx="1456.4" cy="656.24" fill="#8b9ad9"></circle><circle r="5" cx="1601.01" cy="-46.39" fill="#8b9ad9"></circle><circle r="5" cx="1541.85" cy="262.33" fill="#8b9ad9"></circle><circle r="5" cx="1588.95" cy="355.2" fill="#8b9ad9"></circle></g><defs><mask id="SvgjsMask1048"><rect width="1440" height="560" fill="#ffffff"></rect></mask><radialGradient id="SvgjsRadialGradient1049"><stop stop-color="#ffffff" offset="0.1"></stop><stop stop-color="#1735b3" offset="0.2"></stop><stop stop-color="rgba(23, 53, 179, 0)" offset="1"></stop></radialGradient></defs></svg>