<svg xmlns="http://www.w3.org/2000/svg" version="1.1" xmlns:xlink="http://www.w3.org/1999/xlink" xmlns:svgjs="http://svgjs.dev/svgjs" width="1440" height="560" preserveAspectRatio="none" viewBox="0 0 1440 560"><g mask="url(&quot;#SvgjsMask1001&quot;)" fill="none"><path d="M577.42 374.61L577.42 378.34L591.35 378.34L591.35 374.61zM584.75 376.47 a6.6 6.6 0 1 0 13.2 0 a6.6 6.6 0 1 0 -13.2 0zM572.72 401.99L571.29 405.43L596.86 416.02L598.29 412.58zM590.98 414.3 a6.6 6.6 0 1 0 13.2 0 a6.6 6.6 0 1 0 -13.2 0zM557.89 425.48L555.26 428.12L564.56 437.41L567.19 434.78zM559.27 436.1 a6.6 6.6 0 1 0 13.2 0 a6.6 6.6 0 1 0 -13.2 0zM535.21 441.51L531.77 442.94L538.98 460.36L542.43 458.94zM534.1 459.65 a6.6 6.6 0 1 0 13.2 0 a6.6 6.6 0 1 0 -13.2 0zM508.12 447.64L504.39 447.64L504.39 465.27L508.12 465.27zM499.65 465.27 a6.6 6.6 0 1 0 13.2 0 a6.6 6.6 0 1 0 -13.2 0zM480.74 442.94L477.29 441.51L470 459.11L473.45 460.54zM465.13 459.82 a6.6 6.6 0 1 0 13.2 0 a6.6 6.6 0 1 0 -13.2 0zM457.25 428.12L454.61 425.48L445.86 434.23L448.5 436.86zM440.58 435.54 a6.6 6.6 0 1 0 13.2 0 a6.6 6.6 0 1 0 -13.2 0zM441.21 405.43L439.79 401.99L419.7 410.31L421.13 413.75zM413.81 412.03 a6.6 6.6 0 1 0 13.2 0 a6.6 6.6 0 1 0 -13.2 0zM435.08 378.34L435.08 374.61L408.06 374.61L408.06 378.34zM401.46 376.47 a6.6 6.6 0 1 0 13.2 0 a6.6 6.6 0 1 0 -13.2 0zM439.79 350.96L441.21 347.52L415.13 336.71L413.71 340.16zM407.82 338.43 a6.6 6.6 0 1 0 13.2 0 a6.6 6.6 0 1 0 -13.2 0zM454.61 327.47L457.25 324.83L448.76 316.35L446.12 318.98zM440.84 317.66 a6.6 6.6 0 1 0 13.2 0 a6.6 6.6 0 1 0 -13.2 0zM477.29 311.43L480.74 310.01L471.5 287.72L468.06 289.14zM463.18 288.43 a6.6 6.6 0 1 0 13.2 0 a6.6 6.6 0 1 0 -13.2 0zM504.39 305.3L508.12 305.3L508.12 271L504.39 271zM499.65 271 a6.6 6.6 0 1 0 13.2 0 a6.6 6.6 0 1 0 -13.2 0zM531.77 310.01L535.21 311.43L544.45 289.12L541.01 287.7zM536.13 288.41 a6.6 6.6 0 1 0 13.2 0 a6.6 6.6 0 1 0 -13.2 0zM555.26 324.83L557.89 327.47L580.72 304.64L578.08 302.01zM572.8 303.32 a6.6 6.6 0 1 0 13.2 0 a6.6 6.6 0 1 0 -13.2 0zM571.29 347.52L572.72 350.96L591.16 343.32L589.73 339.88zM583.84 341.6 a6.6 6.6 0 1 0 13.2 0 a6.6 6.6 0 1 0 -13.2 0zM435.06 376.47 a71.19 71.19 0 1 0 142.38 0 a71.19 71.19 0 1 0 -142.38 0z" fill="#488fdb"></path><path d="M437.95 396.57 A70.1936 70.1936 0 0 1 522.85 307.24M522.85 307.24 A142.3872 142.3872 0 0 0 437.95 396.57" fill="#2672c3" fill-rule="nonzero"></path><path d="M452.76 363.83 a14.24 14.24 0 1 0 28.48 0 a14.24 14.24 0 1 0 -28.48 0zM487.38 388.63 a11.39 11.39 0 1 0 22.78 0 a11.39 11.39 0 1 0 -22.78 0zM494 419.34 a4.98 4.98 0 1 0 9.96 0 a4.98 4.98 0 1 0 -9.96 0zM504.94 351.01 a14.24 14.24 0 1 0 28.48 0 a14.24 14.24 0 1 0 -28.48 0zM471.21 332.08 a3.56 3.56 0 1 0 7.12 0 a3.56 3.56 0 1 0 -7.12 0zM465.47 422.94 a7.12 7.12 0 1 0 14.24 0 a7.12 7.12 0 1 0 -14.24 0zM554.26 372.59 a11.39 11.39 0 1 0 22.78 0 a11.39 11.39 0 1 0 -22.78 0zM531.39 320.77 a6.41 6.41 0 1 0 12.82 0 a6.41 6.41 0 1 0 -12.82 0zM456.68 395.42 a3.56 3.56 0 1 0 7.12 0 a3.56 3.56 0 1 0 -7.12 0zM524.33 384.09 a6.41 6.41 0 1 0 12.82 0 a6.41 6.41 0 1 0 -12.82 0z" fill="#2672c3" fill-rule="nonzero"></path><path d="M886.85 307.61L886.85 311.34L906.38 311.34L906.38 307.61zM899.78 309.47 a6.6 6.6 0 1 0 13.2 0 a6.6 6.6 0 1 0 -13.2 0zM882.14 334.99L880.72 338.43L899.85 346.36L901.28 342.91zM893.96 344.63 a6.6 6.6 0 1 0 13.2 0 a6.6 6.6 0 1 0 -13.2 0zM867.32 358.48L864.68 361.12L884.67 381.11L887.31 378.47zM879.39 379.79 a6.6 6.6 0 1 0 13.2 0 a6.6 6.6 0 1 0 -13.2 0zM844.64 374.51L841.19 375.94L844.8 384.66L848.25 383.23zM839.93 383.95 a6.6 6.6 0 1 0 13.2 0 a6.6 6.6 0 1 0 -13.2 0zM817.54 380.64L813.81 380.64L813.81 410.6L817.54 410.6zM809.08 410.6 a6.6 6.6 0 1 0 13.2 0 a6.6 6.6 0 1 0 -13.2 0zM790.16 375.94L786.72 374.51L776.66 398.8L780.1 400.23zM771.78 399.51 a6.6 6.6 0 1 0 13.2 0 a6.6 6.6 0 1 0 -13.2 0zM766.67 361.12L764.04 358.48L754.05 368.47L756.68 371.11zM748.76 369.79 a6.6 6.6 0 1 0 13.2 0 a6.6 6.6 0 1 0 -13.2 0zM750.64 338.43L749.21 334.99L717.66 348.06L719.09 351.5zM711.78 349.78 a6.6 6.6 0 1 0 13.2 0 a6.6 6.6 0 1 0 -13.2 0zM744.51 311.34L744.51 307.61L710.38 307.61L710.38 311.34zM703.78 309.47 a6.6 6.6 0 1 0 13.2 0 a6.6 6.6 0 1 0 -13.2 0zM749.21 283.96L750.64 280.52L722.14 268.71L720.71 272.15zM714.83 270.43 a6.6 6.6 0 1 0 13.2 0 a6.6 6.6 0 1 0 -13.2 0zM764.04 260.47L766.67 257.83L755.32 246.48L752.68 249.11zM747.4 247.79 a6.6 6.6 0 1 0 13.2 0 a6.6 6.6 0 1 0 -13.2 0zM786.72 244.44L790.16 243.01L786.21 233.47L782.77 234.89zM777.89 234.18 a6.6 6.6 0 1 0 13.2 0 a6.6 6.6 0 1 0 -13.2 0zM813.81 238.3L817.54 238.3L817.54 205.31L813.81 205.31zM809.08 205.31 a6.6 6.6 0 1 0 13.2 0 a6.6 6.6 0 1 0 -13.2 0zM841.19 243.01L844.64 244.44L856.49 215.81L853.05 214.39zM848.17 215.1 a6.6 6.6 0 1 0 13.2 0 a6.6 6.6 0 1 0 -13.2 0zM864.68 257.83L867.32 260.47L876.87 250.91L874.24 248.28zM868.96 249.6 a6.6 6.6 0 1 0 13.2 0 a6.6 6.6 0 1 0 -13.2 0zM880.72 280.52L882.14 283.96L908.42 273.08L906.99 269.63zM901.11 271.36 a6.6 6.6 0 1 0 13.2 0 a6.6 6.6 0 1 0 -13.2 0zM744.49 309.47 a71.19 71.19 0 1 0 142.38 0 a71.19 71.19 0 1 0 -142.38 0z" fill="#488fdb"></path><path d="M757.85 267.95 A70.1936 70.1936 0 0 1 880.49 280.02M880.49 280.02 A142.3872 142.3872 0 0 0 757.85 267.95" fill="#2672c3" fill-rule="nonzero"></path><path d="M842.18 257.9 a8.54 8.54 0 1 0 17.08 0 a8.54 8.54 0 1 0 -17.08 0zM765.32 350.95 a14.24 14.24 0 1 0 28.48 0 a14.24 14.24 0 1 0 -28.48 0zM813.97 274.38 a9.26 9.26 0 1 0 18.52 0 a9.26 9.26 0 1 0 -18.52 0zM834.63 353.67 a14.24 14.24 0 1 0 28.48 0 a14.24 14.24 0 1 0 -28.48 0zM746.35 297.85 a12.81 12.81 0 1 0 25.62 0 a12.81 12.81 0 1 0 -25.62 0zM862.08 322.45 a9.97 9.97 0 1 0 19.94 0 a9.97 9.97 0 1 0 -19.94 0zM805.39 335.69 a8.54 8.54 0 1 0 17.08 0 a8.54 8.54 0 1 0 -17.08 0zM785.06 288.44 a6.41 6.41 0 1 0 12.82 0 a6.41 6.41 0 1 0 -12.82 0zM842.87 316.17 a2.85 2.85 0 1 0 5.7 0 a2.85 2.85 0 1 0 -5.7 0zM764.55 265.94 a6.41 6.41 0 1 0 12.82 0 a6.41 6.41 0 1 0 -12.82 0z" fill="#2672c3" fill-rule="nonzero"></path><path d="M592.94 128.09L592.94 129.95L601.63 129.95L601.63 128.09zM598.33 129.02 a3.3 3.3 0 1 0 6.6 0 a3.3 3.3 0 1 0 -6.6 0zM590.58 141.78L589.87 143.5L594.21 145.3L594.93 143.58zM591.27 144.44 a3.3 3.3 0 1 0 6.6 0 a3.3 3.3 0 1 0 -6.6 0zM583.17 153.52L581.85 154.84L586.16 159.15L587.48 157.83zM583.52 158.49 a3.3 3.3 0 1 0 6.6 0 a3.3 3.3 0 1 0 -6.6 0zM571.83 161.54L570.11 162.25L573.23 169.79L574.95 169.08zM570.79 169.44 a3.3 3.3 0 1 0 6.6 0 a3.3 3.3 0 1 0 -6.6 0zM558.28 164.61L556.42 164.61L556.42 179.87L558.28 179.87zM554.05 179.87 a3.3 3.3 0 1 0 6.6 0 a3.3 3.3 0 1 0 -6.6 0zM544.59 162.25L542.87 161.54L536.69 176.46L538.41 177.17zM534.25 176.82 a3.3 3.3 0 1 0 6.6 0 a3.3 3.3 0 1 0 -6.6 0zM532.85 154.84L531.53 153.52L524.86 160.19L526.18 161.51zM522.22 160.85 a3.3 3.3 0 1 0 6.6 0 a3.3 3.3 0 1 0 -6.6 0zM524.83 143.5L524.12 141.78L508.12 148.41L508.83 150.13zM505.17 149.27 a3.3 3.3 0 1 0 6.6 0 a3.3 3.3 0 1 0 -6.6 0zM521.77 129.95L521.77 128.09L513.11 128.09L513.11 129.95zM509.81 129.02 a3.3 3.3 0 1 0 6.6 0 a3.3 3.3 0 1 0 -6.6 0zM524.12 116.26L524.83 114.54L511.88 109.18L511.17 110.9zM508.22 110.04 a3.3 3.3 0 1 0 6.6 0 a3.3 3.3 0 1 0 -6.6 0zM531.53 104.52L532.85 103.2L520.66 91.02L519.35 92.33zM516.7 91.68 a3.3 3.3 0 1 0 6.6 0 a3.3 3.3 0 1 0 -6.6 0zM542.87 96.5L544.59 95.79L541.64 88.67L539.92 89.38zM537.48 89.02 a3.3 3.3 0 1 0 6.6 0 a3.3 3.3 0 1 0 -6.6 0zM556.42 93.44L558.28 93.44L558.28 87.14L556.42 87.14zM554.05 87.14 a3.3 3.3 0 1 0 6.6 0 a3.3 3.3 0 1 0 -6.6 0zM570.11 95.79L571.83 96.5L574.58 89.86L572.86 89.15zM570.42 89.5 a3.3 3.3 0 1 0 6.6 0 a3.3 3.3 0 1 0 -6.6 0zM581.85 103.2L583.17 104.52L594.28 93.41L592.96 92.09zM590.32 92.75 a3.3 3.3 0 1 0 6.6 0 a3.3 3.3 0 1 0 -6.6 0zM589.87 114.54L590.58 116.26L598.12 113.14L597.41 111.42zM594.47 112.28 a3.3 3.3 0 1 0 6.6 0 a3.3 3.3 0 1 0 -6.6 0zM521.75 129.02 a35.6 35.6 0 1 0 71.2 0 a35.6 35.6 0 1 0 -71.2 0z" fill="#488fdb"></path><path d="M527.87 109.07 A34.5968 34.5968 0 0 1 589.33 113.39M589.33 113.39 A71.1936 71.1936 0 0 0 527.87 109.07" fill="#2672c3" fill-rule="nonzero"></path><path d="M522.08 133.51 a2.49 2.49 0 1 0 4.98 0 a2.49 2.49 0 1 0 -4.98 0zM527.18 112.32 a6.76 6.76 0 1 0 13.52 0 a6.76 6.76 0 1 0 -13.52 0zM542.95 158.84 a3.56 3.56 0 1 0 7.12 0 a3.56 3.56 0 1 0 -7.12 0zM531.43 152.49 a1.42 1.42 0 1 0 2.84 0 a1.42 1.42 0 1 0 -2.84 0zM544.59 139.87 a7.12 7.12 0 1 0 14.24 0 a7.12 7.12 0 1 0 -14.24 0zM585.76 145.33 a1.42 1.42 0 1 0 2.84 0 a1.42 1.42 0 1 0 -2.84 0zM578.86 132.96 a4.27 4.27 0 1 0 8.54 0 a4.27 4.27 0 1 0 -8.54 0zM578.56 116.41 a4.98 4.98 0 1 0 9.96 0 a4.98 4.98 0 1 0 -9.96 0zM576.69 153.36 a2.49 2.49 0 1 0 4.98 0 a2.49 2.49 0 1 0 -4.98 0zM533.07 139.06 a1.42 1.42 0 1 0 2.84 0 a1.42 1.42 0 1 0 -2.84 0z" fill="#2672c3" fill-rule="nonzero"></path><path d="M321.47 208.29L321.47 212.02L338.06 212.02L338.06 208.29zM331.46 210.16 a6.6 6.6 0 1 0 13.2 0 a6.6 6.6 0 1 0 -13.2 0zM316.76 235.67L315.34 239.11L339.11 248.96L340.53 245.52zM333.22 247.24 a6.6 6.6 0 1 0 13.2 0 a6.6 6.6 0 1 0 -13.2 0zM301.94 259.16L299.3 261.8L305.53 268.02L308.16 265.39zM300.24 266.7 a6.6 6.6 0 1 0 13.2 0 a6.6 6.6 0 1 0 -13.2 0zM279.25 275.2L275.81 276.62L282.85 293.61L286.29 292.19zM277.97 292.9 a6.6 6.6 0 1 0 13.2 0 a6.6 6.6 0 1 0 -13.2 0zM252.16 281.33L248.43 281.33L248.43 298.04L252.16 298.04zM243.7 298.04 a6.6 6.6 0 1 0 13.2 0 a6.6 6.6 0 1 0 -13.2 0zM224.78 276.62L221.34 275.2L210.64 301.03L214.08 302.45zM205.76 301.74 a6.6 6.6 0 1 0 13.2 0 a6.6 6.6 0 1 0 -13.2 0zM201.29 261.8L198.66 259.16L177.91 279.91L180.54 282.55zM172.63 281.23 a6.6 6.6 0 1 0 13.2 0 a6.6 6.6 0 1 0 -13.2 0zM185.26 239.11L183.83 235.67L154.66 247.76L156.08 251.2zM148.77 249.48 a6.6 6.6 0 1 0 13.2 0 a6.6 6.6 0 1 0 -13.2 0zM179.13 212.02L179.13 208.29L161.93 208.29L161.93 212.02zM155.33 210.16 a6.6 6.6 0 1 0 13.2 0 a6.6 6.6 0 1 0 -13.2 0zM183.83 184.64L185.26 181.2L172.56 175.94L171.13 179.38zM165.24 177.66 a6.6 6.6 0 1 0 13.2 0 a6.6 6.6 0 1 0 -13.2 0zM198.66 161.15L201.29 158.51L177.05 134.27L174.42 136.91zM169.13 135.59 a6.6 6.6 0 1 0 13.2 0 a6.6 6.6 0 1 0 -13.2 0zM221.34 145.12L224.78 143.69L215 120.08L211.56 121.5zM206.68 120.79 a6.6 6.6 0 1 0 13.2 0 a6.6 6.6 0 1 0 -13.2 0zM248.43 138.99L252.16 138.99L252.16 128.52L248.43 128.52zM243.7 128.52 a6.6 6.6 0 1 0 13.2 0 a6.6 6.6 0 1 0 -13.2 0zM275.81 143.69L279.25 145.12L292.23 113.79L288.79 112.36zM283.91 113.08 a6.6 6.6 0 1 0 13.2 0 a6.6 6.6 0 1 0 -13.2 0zM299.3 158.51L301.94 161.15L322.13 140.96L319.49 138.33zM314.21 139.64 a6.6 6.6 0 1 0 13.2 0 a6.6 6.6 0 1 0 -13.2 0zM315.34 181.2L316.76 184.64L325.53 181.01L324.1 177.57zM318.22 179.29 a6.6 6.6 0 1 0 13.2 0 a6.6 6.6 0 1 0 -13.2 0zM179.11 210.16 a71.19 71.19 0 1 0 142.38 0 a71.19 71.19 0 1 0 -142.38 0z" fill="#488fdb"></path><path d="M180.01 221.5 A70.1936 70.1936 0 0 1 275.47 143.56M275.47 143.56 A142.3872 142.3872 0 0 0 180.01 221.5" fill="#2672c3" fill-rule="nonzero"></path><path d="M230.93 275.43 a3.56 3.56 0 1 0 7.12 0 a3.56 3.56 0 1 0 -7.12 0zM205.35 179.65 a14.24 14.24 0 1 0 28.48 0 a14.24 14.24 0 1 0 -28.48 0zM230.42 233.39 a14.24 14.24 0 1 0 28.48 0 a14.24 14.24 0 1 0 -28.48 0zM272.25 223.26 a9.97 9.97 0 1 0 19.94 0 a9.97 9.97 0 1 0 -19.94 0zM306.89 220.73 a6.41 6.41 0 1 0 12.82 0 a6.41 6.41 0 1 0 -12.82 0zM287.04 188.84 a13.53 13.53 0 1 0 27.06 0 a13.53 13.53 0 1 0 -27.06 0zM245.7 151.29 a11.39 11.39 0 1 0 22.78 0 a11.39 11.39 0 1 0 -22.78 0zM212.81 253.79 a4.98 4.98 0 1 0 9.96 0 a4.98 4.98 0 1 0 -9.96 0zM255.65 261.93 a2.85 2.85 0 1 0 5.7 0 a2.85 2.85 0 1 0 -5.7 0zM206.57 228.44 a4.98 4.98 0 1 0 9.96 0 a4.98 4.98 0 1 0 -9.96 0z" fill="#2672c3" fill-rule="nonzero"></path><path d="M1140.44 497.96L1140.44 499.82L1156.74 499.82L1156.74 497.96zM1153.44 498.89 a3.3 3.3 0 1 0 6.6 0 a3.3 3.3 0 1 0 -6.6 0zM1138.09 511.65L1137.38 513.37L1148.12 517.81L1148.83 516.09zM1145.17 516.95 a3.3 3.3 0 1 0 6.6 0 a3.3 3.3 0 1 0 -6.6 0zM1130.68 523.39L1129.36 524.71L1137.22 532.57L1138.54 531.25zM1134.58 531.91 a3.3 3.3 0 1 0 6.6 0 a3.3 3.3 0 1 0 -6.6 0zM1119.34 531.41L1117.62 532.12L1123.74 546.91L1125.47 546.2zM1121.3 546.56 a3.3 3.3 0 1 0 6.6 0 a3.3 3.3 0 1 0 -6.6 0zM1105.79 534.47L1103.93 534.47L1103.93 544.49L1105.79 544.49zM1101.56 544.49 a3.3 3.3 0 1 0 6.6 0 a3.3 3.3 0 1 0 -6.6 0zM1092.1 532.12L1090.38 531.41L1086.36 541.13L1088.08 541.84zM1083.92 541.48 a3.3 3.3 0 1 0 6.6 0 a3.3 3.3 0 1 0 -6.6 0zM1080.36 524.71L1079.04 523.39L1067.27 535.16L1068.59 536.48zM1064.63 535.82 a3.3 3.3 0 1 0 6.6 0 a3.3 3.3 0 1 0 -6.6 0zM1072.34 513.37L1071.63 511.65L1066.25 513.87L1066.96 515.6zM1063.31 514.73 a3.3 3.3 0 1 0 6.6 0 a3.3 3.3 0 1 0 -6.6 0zM1069.28 499.82L1069.28 497.96L1064.08 497.96L1064.08 499.82zM1060.78 498.89 a3.3 3.3 0 1 0 6.6 0 a3.3 3.3 0 1 0 -6.6 0zM1071.63 486.13L1072.34 484.41L1059.65 479.15L1058.93 480.87zM1055.99 480.01 a3.3 3.3 0 1 0 6.6 0 a3.3 3.3 0 1 0 -6.6 0zM1079.04 474.39L1080.36 473.07L1075.22 467.93L1073.9 469.25zM1071.26 468.59 a3.3 3.3 0 1 0 6.6 0 a3.3 3.3 0 1 0 -6.6 0zM1090.38 466.37L1092.1 465.66L1089.42 459.18L1087.7 459.89zM1085.26 459.54 a3.3 3.3 0 1 0 6.6 0 a3.3 3.3 0 1 0 -6.6 0zM1103.93 463.3L1105.79 463.3L1105.79 448.84L1103.93 448.84zM1101.56 448.84 a3.3 3.3 0 1 0 6.6 0 a3.3 3.3 0 1 0 -6.6 0zM1117.62 465.66L1119.34 466.37L1122.14 459.61L1120.42 458.89zM1117.98 459.25 a3.3 3.3 0 1 0 6.6 0 a3.3 3.3 0 1 0 -6.6 0zM1129.36 473.07L1130.68 474.39L1138.11 466.95L1136.8 465.64zM1134.15 466.3 a3.3 3.3 0 1 0 6.6 0 a3.3 3.3 0 1 0 -6.6 0zM1137.38 484.41L1138.09 486.13L1151.85 480.43L1151.14 478.71zM1148.19 479.57 a3.3 3.3 0 1 0 6.6 0 a3.3 3.3 0 1 0 -6.6 0zM1069.26 498.89 a35.6 35.6 0 1 0 71.2 0 a35.6 35.6 0 1 0 -71.2 0z" fill="#488fdb"></path><path d="M1121.14 530.54 A34.5968 34.5968 0 0 1 1069.3 497.24M1069.3 497.24 A71.1936 71.1936 0 0 0 1121.14 530.54" fill="#2672c3" fill-rule="nonzero"></path><path d="M1087.59 470.79 a4.63 4.63 0 1 0 9.26 0 a4.63 4.63 0 1 0 -9.26 0zM1097.56 482.13 a1.42 1.42 0 1 0 2.84 0 a1.42 1.42 0 1 0 -2.84 0zM1072.73 485.08 a5.7 5.7 0 1 0 11.4 0 a5.7 5.7 0 1 0 -11.4 0zM1112.78 511.04 a7.12 7.12 0 1 0 14.24 0 a7.12 7.12 0 1 0 -14.24 0zM1133.95 500.75 a3.2 3.2 0 1 0 6.4 0 a3.2 3.2 0 1 0 -6.4 0zM1108.71 493.23 a4.63 4.63 0 1 0 9.26 0 a4.63 4.63 0 1 0 -9.26 0zM1099.3 531.46 a2.85 2.85 0 1 0 5.7 0 a2.85 2.85 0 1 0 -5.7 0zM1099.18 499.48 a1.78 1.78 0 1 0 3.56 0 a1.78 1.78 0 1 0 -3.56 0zM1115.46 478.3 a4.27 4.27 0 1 0 8.54 0 a4.27 4.27 0 1 0 -8.54 0zM1099.9 512.82 a2.85 2.85 0 1 0 5.7 0 a2.85 2.85 0 1 0 -5.7 0z" fill="#2672c3" fill-rule="nonzero"></path><path d="M1364.42 487.7L1364.42 489.56L1368.97 489.56L1368.97 487.7zM1365.67 488.63 a3.3 3.3 0 1 0 6.6 0 a3.3 3.3 0 1 0 -6.6 0zM1362.07 501.39L1361.36 503.11L1367.95 505.84L1368.66 504.12zM1365 504.98 a3.3 3.3 0 1 0 6.6 0 a3.3 3.3 0 1 0 -6.6 0zM1354.66 513.13L1353.34 514.45L1357.27 518.38L1358.58 517.06zM1354.63 517.72 a3.3 3.3 0 1 0 6.6 0 a3.3 3.3 0 1 0 -6.6 0zM1343.32 521.15L1341.6 521.86L1346.68 534.13L1348.4 533.42zM1344.24 533.78 a3.3 3.3 0 1 0 6.6 0 a3.3 3.3 0 1 0 -6.6 0zM1329.77 524.21L1327.91 524.21L1327.91 532.02L1329.77 532.02zM1325.54 532.02 a3.3 3.3 0 1 0 6.6 0 a3.3 3.3 0 1 0 -6.6 0zM1316.08 521.86L1314.36 521.15L1312.41 525.86L1314.13 526.57zM1309.97 526.22 a3.3 3.3 0 1 0 6.6 0 a3.3 3.3 0 1 0 -6.6 0zM1304.34 514.45L1303.02 513.13L1291.55 524.6L1292.87 525.92zM1288.91 525.26 a3.3 3.3 0 1 0 6.6 0 a3.3 3.3 0 1 0 -6.6 0zM1296.32 503.11L1295.61 501.39L1282.52 506.81L1283.24 508.53zM1279.58 507.67 a3.3 3.3 0 1 0 6.6 0 a3.3 3.3 0 1 0 -6.6 0zM1293.25 489.56L1293.25 487.7L1283.84 487.7L1283.84 489.56zM1280.54 488.63 a3.3 3.3 0 1 0 6.6 0 a3.3 3.3 0 1 0 -6.6 0zM1295.61 475.87L1296.32 474.15L1289.11 471.17L1288.4 472.89zM1285.46 472.03 a3.3 3.3 0 1 0 6.6 0 a3.3 3.3 0 1 0 -6.6 0zM1303.02 464.13L1304.34 462.81L1300.28 458.75L1298.96 460.07zM1296.32 459.41 a3.3 3.3 0 1 0 6.6 0 a3.3 3.3 0 1 0 -6.6 0zM1314.36 456.11L1316.08 455.4L1309.7 439.99L1307.98 440.7zM1305.54 440.34 a3.3 3.3 0 1 0 6.6 0 a3.3 3.3 0 1 0 -6.6 0zM1327.91 453.05L1329.77 453.05L1329.77 444.58L1327.91 444.58zM1325.54 444.58 a3.3 3.3 0 1 0 6.6 0 a3.3 3.3 0 1 0 -6.6 0zM1341.6 455.4L1343.32 456.11L1347.36 446.35L1345.64 445.64zM1343.2 446 a3.3 3.3 0 1 0 6.6 0 a3.3 3.3 0 1 0 -6.6 0zM1353.34 462.81L1354.66 464.13L1366.72 452.06L1365.41 450.75zM1362.76 451.4 a3.3 3.3 0 1 0 6.6 0 a3.3 3.3 0 1 0 -6.6 0zM1361.36 474.15L1362.07 475.87L1368.03 473.41L1367.32 471.68zM1364.37 472.54 a3.3 3.3 0 1 0 6.6 0 a3.3 3.3 0 1 0 -6.6 0zM1293.24 488.63 a35.6 35.6 0 1 0 71.2 0 a35.6 35.6 0 1 0 -71.2 0z" fill="#488fdb"></path><path d="M1364.34 491.3 A34.5968 34.5968 0 0 1 1308.84 518.08M1308.84 518.08 A71.1936 71.1936 0 0 0 1364.34 491.3" fill="#2672c3" fill-rule="nonzero"></path><path d="M1327.88 513.26 a7.12 7.12 0 1 0 14.24 0 a7.12 7.12 0 1 0 -14.24 0zM1342.87 497.1 a7.12 7.12 0 1 0 14.24 0 a7.12 7.12 0 1 0 -14.24 0zM1340.01 480.93 a3.2 3.2 0 1 0 6.4 0 a3.2 3.2 0 1 0 -6.4 0zM1361.4 487.08 a1.42 1.42 0 1 0 2.84 0 a1.42 1.42 0 1 0 -2.84 0zM1294.24 496.1 a5.34 5.34 0 1 0 10.68 0 a5.34 5.34 0 1 0 -10.68 0zM1316.8 484.16 a7.12 7.12 0 1 0 14.24 0 a7.12 7.12 0 1 0 -14.24 0zM1309.92 460.8 a3.56 3.56 0 1 0 7.12 0 a3.56 3.56 0 1 0 -7.12 0zM1303.4 473.01 a3.2 3.2 0 1 0 6.4 0 a3.2 3.2 0 1 0 -6.4 0zM1355.34 470.43 a1.78 1.78 0 1 0 3.56 0 a1.78 1.78 0 1 0 -3.56 0zM1303.21 509.58 a1.78 1.78 0 1 0 3.56 0 a1.78 1.78 0 1 0 -3.56 0z" fill="#2672c3" fill-rule="nonzero"></path><path d="M1411.33 76.69L1411.33 78.56L1420.21 78.56L1420.21 76.69zM1416.91 77.63 a3.3 3.3 0 1 0 6.6 0 a3.3 3.3 0 1 0 -6.6 0zM1408.98 90.38L1408.26 92.1L1419.49 96.75L1420.2 95.03zM1416.55 95.89 a3.3 3.3 0 1 0 6.6 0 a3.3 3.3 0 1 0 -6.6 0zM1401.57 102.13L1400.25 103.45L1409.69 112.89L1411.01 111.58zM1407.05 112.24 a3.3 3.3 0 1 0 6.6 0 a3.3 3.3 0 1 0 -6.6 0zM1390.22 110.15L1388.5 110.86L1392.37 120.21L1394.1 119.5zM1389.94 119.85 a3.3 3.3 0 1 0 6.6 0 a3.3 3.3 0 1 0 -6.6 0zM1376.68 113.21L1374.81 113.21L1374.81 119.04L1376.68 119.04zM1372.44 119.04 a3.3 3.3 0 1 0 6.6 0 a3.3 3.3 0 1 0 -6.6 0zM1362.99 110.86L1361.27 110.15L1355.71 123.55L1357.44 124.26zM1353.27 123.91 a3.3 3.3 0 1 0 6.6 0 a3.3 3.3 0 1 0 -6.6 0zM1351.24 103.45L1349.92 102.13L1340.88 111.17L1342.2 112.49zM1338.24 111.83 a3.3 3.3 0 1 0 6.6 0 a3.3 3.3 0 1 0 -6.6 0zM1343.23 92.1L1342.51 90.38L1329.39 95.82L1330.11 97.54zM1326.45 96.68 a3.3 3.3 0 1 0 6.6 0 a3.3 3.3 0 1 0 -6.6 0zM1340.16 78.56L1340.16 76.69L1331.46 76.69L1331.46 78.56zM1328.16 77.63 a3.3 3.3 0 1 0 6.6 0 a3.3 3.3 0 1 0 -6.6 0zM1342.51 64.87L1343.23 63.15L1329.02 57.26L1328.3 58.98zM1325.36 58.12 a3.3 3.3 0 1 0 6.6 0 a3.3 3.3 0 1 0 -6.6 0zM1349.92 53.12L1351.24 51.81L1342.98 43.55L1341.66 44.86zM1339.02 44.21 a3.3 3.3 0 1 0 6.6 0 a3.3 3.3 0 1 0 -6.6 0zM1361.27 45.11L1362.99 44.39L1357.72 31.67L1356 32.39zM1353.56 32.03 a3.3 3.3 0 1 0 6.6 0 a3.3 3.3 0 1 0 -6.6 0zM1374.81 42.04L1376.68 42.04L1376.68 29.18L1374.81 29.18zM1372.44 29.18 a3.3 3.3 0 1 0 6.6 0 a3.3 3.3 0 1 0 -6.6 0zM1388.5 44.39L1390.22 45.11L1392.83 38.82L1391.1 38.11zM1388.66 38.47 a3.3 3.3 0 1 0 6.6 0 a3.3 3.3 0 1 0 -6.6 0zM1400.25 51.81L1401.57 53.12L1407.8 46.89L1406.48 45.58zM1403.84 46.23 a3.3 3.3 0 1 0 6.6 0 a3.3 3.3 0 1 0 -6.6 0zM1408.26 63.15L1408.98 64.87L1415.58 62.13L1414.87 60.41zM1411.93 61.27 a3.3 3.3 0 1 0 6.6 0 a3.3 3.3 0 1 0 -6.6 0zM1340.14 77.63 a35.6 35.6 0 1 0 71.2 0 a35.6 35.6 0 1 0 -71.2 0z" fill="#488fdb"></path><path d="M1365.41 111.69 A34.5968 34.5968 0 0 1 1351.36 51.69M1351.36 51.69 A71.1936 71.1936 0 0 0 1365.41 111.69" fill="#2672c3" fill-rule="nonzero"></path><path d="M1382.9 62.69 a7.12 7.12 0 1 0 14.24 0 a7.12 7.12 0 1 0 -14.24 0zM1381.25 98.69 a7.12 7.12 0 1 0 14.24 0 a7.12 7.12 0 1 0 -14.24 0zM1404.42 82.87 a3.2 3.2 0 1 0 6.4 0 a3.2 3.2 0 1 0 -6.4 0zM1342.58 88.7 a5.34 5.34 0 1 0 10.68 0 a5.34 5.34 0 1 0 -10.68 0zM1349.82 64.45 a7.12 7.12 0 1 0 14.24 0 a7.12 7.12 0 1 0 -14.24 0zM1370.24 103.01 a2.14 2.14 0 1 0 4.28 0 a2.14 2.14 0 1 0 -4.28 0zM1373.34 45.38 a3.2 3.2 0 1 0 6.4 0 a3.2 3.2 0 1 0 -6.4 0zM1394.64 80.49 a1.42 1.42 0 1 0 2.84 0 a1.42 1.42 0 1 0 -2.84 0zM1359.16 95.02 a2.14 2.14 0 1 0 4.28 0 a2.14 2.14 0 1 0 -4.28 0zM1366.42 80.35 a7.12 7.12 0 1 0 14.24 0 a7.12 7.12 0 1 0 -14.24 0z" fill="#2672c3" fill-rule="nonzero"></path><path d="M1227.25 249.04L1227.25 252.77L1255.84 252.77L1255.84 249.04zM1249.24 250.91 a6.6 6.6 0 1 0 13.2 0 a6.6 6.6 0 1 0 -13.2 0zM1222.55 276.42L1221.12 279.86L1241.24 288.2L1242.67 284.75zM1235.36 286.48 a6.6 6.6 0 1 0 13.2 0 a6.6 6.6 0 1 0 -13.2 0zM1207.73 299.91L1205.09 302.55L1224.71 322.16L1227.34 319.53zM1219.42 320.84 a6.6 6.6 0 1 0 13.2 0 a6.6 6.6 0 1 0 -13.2 0zM1185.04 315.94L1181.6 317.37L1191.49 341.26L1194.94 339.84zM1186.62 340.55 a6.6 6.6 0 1 0 13.2 0 a6.6 6.6 0 1 0 -13.2 0zM1157.95 322.07L1154.22 322.07L1154.22 331.59L1157.95 331.59zM1149.48 331.59 a6.6 6.6 0 1 0 13.2 0 a6.6 6.6 0 1 0 -13.2 0zM1130.57 317.37L1127.13 315.94L1115.51 343.99L1118.95 345.42zM1110.63 344.71 a6.6 6.6 0 1 0 13.2 0 a6.6 6.6 0 1 0 -13.2 0zM1107.08 302.55L1104.44 299.91L1081.14 323.21L1083.78 325.85zM1075.86 324.53 a6.6 6.6 0 1 0 13.2 0 a6.6 6.6 0 1 0 -13.2 0zM1091.05 279.86L1089.62 276.42L1068.58 285.13L1070.01 288.58zM1062.7 286.85 a6.6 6.6 0 1 0 13.2 0 a6.6 6.6 0 1 0 -13.2 0zM1084.91 252.77L1084.91 249.04L1050.28 249.04L1050.28 252.77zM1043.68 250.91 a6.6 6.6 0 1 0 13.2 0 a6.6 6.6 0 1 0 -13.2 0zM1089.62 225.39L1091.05 221.95L1077.94 216.52L1076.51 219.96zM1070.62 218.24 a6.6 6.6 0 1 0 13.2 0 a6.6 6.6 0 1 0 -13.2 0zM1104.44 201.9L1107.08 199.26L1091.76 183.95L1089.13 186.58zM1083.84 185.27 a6.6 6.6 0 1 0 13.2 0 a6.6 6.6 0 1 0 -13.2 0zM1127.13 185.87L1130.57 184.44L1123.82 168.15L1120.38 169.58zM1115.5 168.87 a6.6 6.6 0 1 0 13.2 0 a6.6 6.6 0 1 0 -13.2 0zM1154.22 179.74L1157.95 179.74L1157.95 158.49L1154.22 158.49zM1149.48 158.49 a6.6 6.6 0 1 0 13.2 0 a6.6 6.6 0 1 0 -13.2 0zM1181.6 184.44L1185.04 185.87L1195.01 161.81L1191.56 160.38zM1186.68 161.1 a6.6 6.6 0 1 0 13.2 0 a6.6 6.6 0 1 0 -13.2 0zM1205.09 199.26L1207.73 201.9L1220.55 189.07L1217.92 186.44zM1212.63 187.75 a6.6 6.6 0 1 0 13.2 0 a6.6 6.6 0 1 0 -13.2 0zM1221.12 221.95L1222.55 225.39L1234.27 220.54L1232.85 217.09zM1226.96 218.81 a6.6 6.6 0 1 0 13.2 0 a6.6 6.6 0 1 0 -13.2 0zM1084.89 250.91 a71.19 71.19 0 1 0 142.38 0 a71.19 71.19 0 1 0 -142.38 0z" fill="#488fdb"></path><path d="M1210.62 205.14 A70.1936 70.1936 0 0 1 1168.59 320.99M1168.59 320.99 A142.3872 142.3872 0 0 0 1210.62 205.14" fill="#2672c3" fill-rule="nonzero"></path><path d="M1127.51 294.22 a14.24 14.24 0 1 0 28.48 0 a14.24 14.24 0 1 0 -28.48 0zM1130.69 210.99 a14.24 14.24 0 1 0 28.48 0 a14.24 14.24 0 1 0 -28.48 0zM1100.56 271.1 a9.97 9.97 0 1 0 19.94 0 a9.97 9.97 0 1 0 -19.94 0zM1191.46 276.56 a14.24 14.24 0 1 0 28.48 0 a14.24 14.24 0 1 0 -28.48 0zM1091.77 222.45 a7.12 7.12 0 1 0 14.24 0 a7.12 7.12 0 1 0 -14.24 0zM1199.84 225.2 a10.68 10.68 0 1 0 21.36 0 a10.68 10.68 0 1 0 -21.36 0zM1175.58 303.83 a7.12 7.12 0 1 0 14.24 0 a7.12 7.12 0 1 0 -14.24 0zM1089.32 250.79 a2.85 2.85 0 1 0 5.7 0 a2.85 2.85 0 1 0 -5.7 0zM1180.25 208.59 a4.98 4.98 0 1 0 9.96 0 a4.98 4.98 0 1 0 -9.96 0zM1161.17 246.23 a14.24 14.24 0 1 0 28.48 0 a14.24 14.24 0 1 0 -28.48 0z" fill="#2672c3" fill-rule="nonzero"></path><path d="M124.15 472.64L124.15 474.97L133.39 474.97L133.39 472.64zM129.26 473.81 a4.13 4.13 0 1 0 8.26 0 a4.13 4.13 0 1 0 -8.26 0zM121.21 489.75L120.32 491.91L130.21 496L131.1 493.85zM126.52 494.92 a4.13 4.13 0 1 0 8.26 0 a4.13 4.13 0 1 0 -8.26 0zM111.95 504.44L110.3 506.08L115.61 511.39L117.25 509.74zM112.3 510.56 a4.13 4.13 0 1 0 8.26 0 a4.13 4.13 0 1 0 -8.26 0zM97.77 514.46L95.62 515.35L102.76 532.6L104.92 531.71zM99.71 532.15 a4.13 4.13 0 1 0 8.26 0 a4.13 4.13 0 1 0 -8.26 0zM80.84 518.29L78.51 518.29L78.51 535.44L80.84 535.44zM75.54 535.44 a4.13 4.13 0 1 0 8.26 0 a4.13 4.13 0 1 0 -8.26 0zM63.73 515.35L61.57 514.46L58.75 521.27L60.9 522.17zM55.7 521.72 a4.13 4.13 0 1 0 8.26 0 a4.13 4.13 0 1 0 -8.26 0zM49.04 506.08L47.4 504.44L42.61 509.22L44.26 510.87zM39.3 510.05 a4.13 4.13 0 1 0 8.26 0 a4.13 4.13 0 1 0 -8.26 0zM39.02 491.91L38.13 489.75L30.57 492.89L31.46 495.04zM26.88 493.96 a4.13 4.13 0 1 0 8.26 0 a4.13 4.13 0 1 0 -8.26 0zM35.19 474.97L35.19 472.64L28.44 472.64L28.44 474.97zM24.31 473.81 a4.13 4.13 0 1 0 8.26 0 a4.13 4.13 0 1 0 -8.26 0zM38.13 457.86L39.02 455.71L28.26 451.25L27.37 453.4zM23.68 452.33 a4.13 4.13 0 1 0 8.26 0 a4.13 4.13 0 1 0 -8.26 0zM47.4 443.18L49.04 441.53L36.77 429.26L35.12 430.9zM31.81 430.08 a4.13 4.13 0 1 0 8.26 0 a4.13 4.13 0 1 0 -8.26 0zM61.57 433.16L63.73 432.27L56.48 414.78L54.33 415.67zM51.28 415.22 a4.13 4.13 0 1 0 8.26 0 a4.13 4.13 0 1 0 -8.26 0zM78.51 429.33L80.84 429.33L80.84 410.49L78.51 410.49zM75.54 410.49 a4.13 4.13 0 1 0 8.26 0 a4.13 4.13 0 1 0 -8.26 0zM95.62 432.27L97.77 433.16L101.38 424.46L99.22 423.56zM96.17 424.01 a4.13 4.13 0 1 0 8.26 0 a4.13 4.13 0 1 0 -8.26 0zM110.3 441.53L111.95 443.18L127.33 427.8L125.68 426.15zM122.38 426.98 a4.13 4.13 0 1 0 8.26 0 a4.13 4.13 0 1 0 -8.26 0zM120.32 455.71L121.21 457.86L127.54 455.24L126.65 453.09zM122.97 454.16 a4.13 4.13 0 1 0 8.26 0 a4.13 4.13 0 1 0 -8.26 0zM35.17 473.81 a44.5 44.5 0 1 0 89 0 a44.5 44.5 0 1 0 -89 0z" fill="#488fdb"></path><path d="M122.61 485.47 A43.496 43.496 0 0 1 48.17 505.23M48.17 505.23 A88.992 88.992 0 0 0 122.61 485.47" fill="#2672c3" fill-rule="nonzero"></path><path d="M83.62 507.43 a8.45 8.45 0 1 0 16.9 0 a8.45 8.45 0 1 0 -16.9 0zM88.4 453.8 a8.9 8.9 0 1 0 17.8 0 a8.9 8.9 0 1 0 -17.8 0zM54.56 448.48 a8.9 8.9 0 1 0 17.8 0 a8.9 8.9 0 1 0 -17.8 0zM44.39 492.83 a8.9 8.9 0 1 0 17.8 0 a8.9 8.9 0 1 0 -17.8 0zM61.91 472.12 a6.23 6.23 0 1 0 12.46 0 a6.23 6.23 0 1 0 -12.46 0zM106.68 478.07 a8.45 8.45 0 1 0 16.9 0 a8.45 8.45 0 1 0 -16.9 0zM35.74 470.64 a2.22 2.22 0 1 0 4.44 0 a2.22 2.22 0 1 0 -4.44 0zM86.7 485.82 a4 4 0 1 0 8 0 a4 4 0 1 0 -8 0zM41.55 458.11 a2.67 2.67 0 1 0 5.34 0 a2.67 2.67 0 1 0 -5.34 0zM62.93 512.22 a3.56 3.56 0 1 0 7.12 0 a3.56 3.56 0 1 0 -7.12 0z" fill="#2672c3" fill-rule="nonzero"></path><path d="M935.27 59.42L935.27 61.28L948.26 61.28L948.26 59.42zM944.96 60.35 a3.3 3.3 0 1 0 6.6 0 a3.3 3.3 0 1 0 -6.6 0zM932.91 73.11L932.2 74.83L940.26 78.17L940.97 76.45zM937.31 77.31 a3.3 3.3 0 1 0 6.6 0 a3.3 3.3 0 1 0 -6.6 0zM925.5 84.85L924.19 86.17L933.67 95.66L934.99 94.34zM931.03 95 a3.3 3.3 0 1 0 6.6 0 a3.3 3.3 0 1 0 -6.6 0zM914.16 92.87L912.44 93.58L916.98 104.54L918.7 103.83zM914.54 104.18 a3.3 3.3 0 1 0 6.6 0 a3.3 3.3 0 1 0 -6.6 0zM900.61 95.94L898.75 95.94L898.75 108.15L900.61 108.15zM896.38 108.15 a3.3 3.3 0 1 0 6.6 0 a3.3 3.3 0 1 0 -6.6 0zM886.93 93.58L885.2 92.87L880.83 103.43L882.55 104.14zM878.39 103.79 a3.3 3.3 0 1 0 6.6 0 a3.3 3.3 0 1 0 -6.6 0zM875.18 86.17L873.86 84.85L861.67 97.05L862.99 98.36zM859.03 97.7 a3.3 3.3 0 1 0 6.6 0 a3.3 3.3 0 1 0 -6.6 0zM867.16 74.83L866.45 73.11L850.51 79.71L851.23 81.43zM847.57 80.57 a3.3 3.3 0 1 0 6.6 0 a3.3 3.3 0 1 0 -6.6 0zM864.1 61.28L864.1 59.42L851.08 59.42L851.08 61.28zM847.78 60.35 a3.3 3.3 0 1 0 6.6 0 a3.3 3.3 0 1 0 -6.6 0zM866.45 47.59L867.16 45.87L860.05 42.93L859.34 44.65zM856.39 43.79 a3.3 3.3 0 1 0 6.6 0 a3.3 3.3 0 1 0 -6.6 0zM873.86 35.85L875.18 34.53L864.45 23.8L863.13 25.12zM860.49 24.46 a3.3 3.3 0 1 0 6.6 0 a3.3 3.3 0 1 0 -6.6 0zM885.2 27.83L886.93 27.12L882.86 17.32L881.14 18.03zM878.7 17.67 a3.3 3.3 0 1 0 6.6 0 a3.3 3.3 0 1 0 -6.6 0zM898.75 24.77L900.61 24.77L900.61 14.22L898.75 14.22zM896.38 14.22 a3.3 3.3 0 1 0 6.6 0 a3.3 3.3 0 1 0 -6.6 0zM912.44 27.12L914.16 27.83L920.87 11.63L919.15 10.91zM916.71 11.27 a3.3 3.3 0 1 0 6.6 0 a3.3 3.3 0 1 0 -6.6 0zM924.19 34.53L925.5 35.85L936.58 24.77L935.26 23.46zM932.62 24.12 a3.3 3.3 0 1 0 6.6 0 a3.3 3.3 0 1 0 -6.6 0zM932.2 45.87L932.91 47.59L939.53 44.85L938.82 43.13zM935.87 43.99 a3.3 3.3 0 1 0 6.6 0 a3.3 3.3 0 1 0 -6.6 0zM864.08 60.35 a35.6 35.6 0 1 0 71.2 0 a35.6 35.6 0 1 0 -71.2 0z" fill="#488fdb"></path><path d="M902.78 95.81 A34.5968 34.5968 0 0 1 867.39 45.37M867.39 45.37 A71.1936 71.1936 0 0 0 902.78 95.81" fill="#2672c3" fill-rule="nonzero"></path><path d="M885.45 64.77 a7.12 7.12 0 1 0 14.24 0 a7.12 7.12 0 1 0 -14.24 0zM865.91 50.55 a6.76 6.76 0 1 0 13.52 0 a6.76 6.76 0 1 0 -13.52 0zM884.41 41.11 a6.76 6.76 0 1 0 13.52 0 a6.76 6.76 0 1 0 -13.52 0zM903.98 32.42 a5.7 5.7 0 1 0 11.4 0 a5.7 5.7 0 1 0 -11.4 0zM916.68 74.3 a7.12 7.12 0 1 0 14.24 0 a7.12 7.12 0 1 0 -14.24 0zM878.92 79.08 a3.2 3.2 0 1 0 6.4 0 a3.2 3.2 0 1 0 -6.4 0zM888.14 88.58 a1.42 1.42 0 1 0 2.84 0 a1.42 1.42 0 1 0 -2.84 0zM911.44 90.62 a2.14 2.14 0 1 0 4.28 0 a2.14 2.14 0 1 0 -4.28 0zM896.99 83.21 a3.2 3.2 0 1 0 6.4 0 a3.2 3.2 0 1 0 -6.4 0zM906.41 73.49 a1.42 1.42 0 1 0 2.84 0 a1.42 1.42 0 1 0 -2.84 0z" fill="#2672c3" fill-rule="nonzero"></path></g><defs><mask id="SvgjsMask1001"><rect width="1440" height="560" fill="#ffffff"></rect></mask></defs></svg>